<svg xmlns="http://www.w3.org/2000/svg" xmlns:xlink="http://www.w3.org/1999/xlink" version="1.1" width="612.0768pt" height="370.6563pt" viewBox="0 0 612.0768 370.6563">
<g>
<style>
    svg  { background-color:#ffffff }
</style>
<path transform="matrix(1,0,0,-1,-114.527378,-191.13184)" stroke-width=".7967" stroke-linecap="butt" stroke-miterlimit="10" stroke-linejoin="miter" fill="none" stroke="#000000" d="M115.004-191.535H726.773"/>
<text xml:space="preserve" transform="matrix(1 0 0 1 -114.527378 -191.13184)" font-size="9.958844" font-family="CMBX10" font-weight="bold"><tspan y="200.84125" x="122.47456 131.1288 134.30567 140.032 145.75833 150.46887 153.64574 158.09734 164.48096 174.02153 183.08408 192.63462">Algorithme4:</tspan></text>
<text xml:space="preserve" transform="matrix(1 0 0 1 -114.527378 -191.13184)" font-size="9.958844" font-family="CMR10"><tspan y="200.84125" x="199.13773 205.90975 210.88916 211.168 215.58972 220.01145 225.5386 229.43251 232.19112 237.17053 246.02394 251.5511 254.30971 259.83686 268.71018 273.1319 278.38023 282.80195 285.59043 293.32844 298.8556 306.60359 312.13075 315.76573 316.0446 320.4663 325.99348 330.9729 334.83695 339.25868 344.8157">Ex&#x00b4;ecutiond&#x2019;uncycledepr&#x00b4;edateur</tspan></text>
<path transform="matrix(1,0,0,-1,-114.527378,-191.13184)" stroke-width=".7967" stroke-linecap="butt" stroke-miterlimit="10" stroke-linejoin="miter" fill="none" stroke="#000000" d="M115.004-205.168H726.773"/>
<text xml:space="preserve" transform="matrix(1 0 0 1 -114.527378 -191.13184)" font-size="9.958844" font-family="CMBX10" font-weight="bold"><tspan y="214.47412" x="129.94374 137.46266 143.51764 147.96924 152.44077 152.67978 157.92809 163.17639 171.51195">Entr&#x00b4;ees:</tspan></text>
<text xml:space="preserve" transform="matrix(1 0 0 1 -114.527378 -191.13184)" font-size="9.958844" font-family="CMR10"><tspan y="214.47412" x="178.01506 182.99448 186.88838 189.64699 192.4056 195.19408 199.6158 205.70066 208.45926 211.21787 216.19728 221.75432 226.17604 232.27086 236.69258 241.672 244.4306 249.41002 254.93718 260.46434 264.91593 270.9908 275.97026 281.4974 284.256 292.55174 297.53117">grille,ligne,colonne,animal</tspan></text>
<text xml:space="preserve" transform="matrix(1 0 0 1 -114.527378 -191.13184)" font-size="6.971171" font-family="CMBX7" font-weight="bold"><tspan y="226.4246" x="120.452327">1</tspan></text>
<text xml:space="preserve" transform="matrix(1 0 0 1 -114.527378 -191.13184)" font-size="9.958844" font-family="CMBX10" font-weight="bold"><tspan y="226.4246" x="129.94374 136.06844 136.30745 141.55576 147.9095 154.26325">d&#x00b4;ebut</tspan></text>
<path transform="matrix(1,0,0,-1,-114.527378,-191.13184)" stroke-width=".39785" stroke-linecap="butt" stroke-miterlimit="10" stroke-linejoin="miter" fill="none" stroke="#000000" d="M135.121-545.707V-230.008"/>
<text xml:space="preserve" transform="matrix(1 0 0 1 -114.527378 -191.13184)" font-size="6.971171" font-family="CMBX7" font-weight="bold"><tspan y="238.3751" x="120.850177">2</tspan></text>
<text xml:space="preserve" transform="matrix(1 0 0 1 -114.527378 -191.13184)" font-size="9.958844" font-family="CMTI10" font-style="italic"><tspan y="238.3751" x="145.27997 149.11412 154.711 159.29207 163.24573 163.50467 168.08574 176.22212 180.80319 186.40007 189.7064 194.28748 202.06534 204.60485 207.65225 207.65225 212.74123 217.3223 225.46863 230.5576 238.70394 241.24344 244.29085 249.37982 254.9767 258.0241 266.19038 271.27934 277.39408 281.97514 287.0641 294.82206 302.22148">Incr&#x00b4;ementerl&#x2019;&#x02c6;agedel&#x2019;animalparNB</tspan></text>
<path transform="matrix(1,0,0,-1,-114.527378,-191.13184)" stroke-width=".39785" stroke-linecap="butt" stroke-miterlimit="10" stroke-linejoin="miter" fill="none" stroke="#000000" d="M309.848-238.176H312.898"/>
<text xml:space="preserve" transform="matrix(1 0 0 1 -114.527378 -191.13184)" font-size="9.958844" font-family="CMTI10" font-style="italic"><tspan y="238.3751" x="312.90077 318.12916 325.38917">JRS</tspan></text>
<path transform="matrix(1,0,0,-1,-114.527378,-191.13184)" stroke-width=".39785" stroke-linecap="butt" stroke-miterlimit="10" stroke-linejoin="miter" fill="none" stroke="#000000" d="M331.602-238.176H334.656"/>
<text xml:space="preserve" transform="matrix(1 0 0 1 -114.527378 -191.13184)" font-size="9.958844" font-family="CMTI10" font-style="italic"><tspan y="238.3751" x="334.65754 341.40965 348.80906 355.81013 362.56224 369.07533 376.1959">PUBERTE</tspan></text>
<path transform="matrix(1,0,0,-1,-114.527378,-191.13184)" stroke-width=".39785" stroke-linecap="butt" stroke-miterlimit="10" stroke-linejoin="miter" fill="none" stroke="#000000" d="M383.574-238.176H386.629"/>
<text xml:space="preserve" transform="matrix(1 0 0 1 -114.527378 -191.13184)" font-size="9.958844" font-family="CMTI10" font-style="italic"><tspan y="238.3751" x="386.62794 393.38005 400.64006 407.39216">PRED</tspan></text>
<text xml:space="preserve" transform="matrix(1 0 0 1 -114.527378 -191.13184)" font-size="9.958844" font-family="CMR10"><tspan y="238.3751" x="415.85716">;</tspan></text>
<text xml:space="preserve" transform="matrix(1 0 0 1 -114.527378 -191.13184)" font-size="6.971171" font-family="CMBX7" font-weight="bold"><tspan y="250.32559" x="120.850177">3</tspan></text>
<text xml:space="preserve" transform="matrix(1 0 0 1 -114.527378 -191.13184)" font-size="9.958844" font-family="CMBX10" font-weight="bold"><tspan y="250.32559" x="145.27997 149.79132">si</tspan></text>
<text xml:space="preserve" transform="matrix(1 0 0 1 -114.527378 -191.13184)" font-size="9.958844" font-family="CMTI10" font-style="italic"><tspan y="250.32559" x="156.04547 156.29445 160.87552 166.4724 171.05347 174.7482 179.32927 182.37668 190.53298 195.62195 203.76828 206.30779 209.3552 214.44417 220.04105 223.08846 231.25472 236.34369">&#x00b4;energiedel&#x2019;animal</tspan></text>
<text xml:space="preserve" transform="matrix(1 0 0 1 -114.527378 -191.13184)" font-size="9.958844" font-family="CMMI10" font-style="italic"><tspan y="250.32559" x="242.44846">&#x003c;</tspan></text>
<text xml:space="preserve" transform="matrix(1 0 0 1 -114.527378 -191.13184)" font-size="9.958844" font-family="CMTI10" font-style="italic"><tspan y="250.32559" x="253.7617 262.6848 266.51899">MIN</tspan></text>
<path transform="matrix(1,0,0,-1,-114.527378,-191.13184)" stroke-width=".39785" stroke-linecap="butt" stroke-miterlimit="10" stroke-linejoin="miter" fill="none" stroke="#000000" d="M274.539-250.125H277.594"/>
<text xml:space="preserve" transform="matrix(1 0 0 1 -114.527378 -191.13184)" font-size="9.958844" font-family="CMTI10" font-style="italic"><tspan y="250.32559" x="277.59407 283.19093 290.59034 297.98976 305.11033">SANTE</tspan></text>
<path transform="matrix(1,0,0,-1,-114.527378,-191.13184)" stroke-width=".39785" stroke-linecap="butt" stroke-miterlimit="10" stroke-linejoin="miter" fill="none" stroke="#000000" d="M312.492-250.125H315.543"/>
<text xml:space="preserve" transform="matrix(1 0 0 1 -114.527378 -191.13184)" font-size="9.958844" font-family="CMTI10" font-style="italic"><tspan y="250.32559" x="315.54475 322.29685 329.55686 336.30897">PRED</tspan></text>
<text xml:space="preserve" transform="matrix(1 0 0 1 -114.527378 -191.13184)" font-size="9.958844" font-family="CMBXTI10" font-weight="bold" font-style="italic"><tspan y="250.32559" x="347.4031 353.2888">ou</tspan></text>
<text xml:space="preserve" transform="matrix(1 0 0 1 -114.527378 -191.13184)" font-size="9.958844" font-family="CMTI10" font-style="italic"><tspan y="250.32559" x="363.02854 363.02854 368.1175 372.69856 380.85484 385.9438 394.08015 396.61967 399.66706 404.756 410.35289 413.40028 421.56654 426.6555">&#x02c6;agedel&#x2019;animal</tspan></text>
<text xml:space="preserve" transform="matrix(1 0 0 1 -114.527378 -191.13184)" font-size="9.958844" font-family="CMMI10" font-style="italic"><tspan y="250.32559" x="432.77024">&#x003e;</tspan></text>
<text xml:space="preserve" transform="matrix(1 0 0 1 -114.527378 -191.13184)" font-size="9.958844" font-family="CMTI10" font-style="italic"><tspan y="250.32559" x="444.07353 452.99665 460.39607">MAX</tspan></text>
<path transform="matrix(1,0,0,-1,-114.527378,-191.13184)" stroke-width=".39785" stroke-linecap="butt" stroke-miterlimit="10" stroke-linejoin="miter" fill="none" stroke="#000000" d="M468.422-250.125H471.473"/>
<text xml:space="preserve" transform="matrix(1 0 0 1 -114.527378 -191.13184)" font-size="9.958844" font-family="CMTI10" font-style="italic"><tspan y="250.32559" x="471.47395 478.6244 486.32258">AGE</tspan></text>
<path transform="matrix(1,0,0,-1,-114.527378,-191.13184)" stroke-width=".39785" stroke-linecap="butt" stroke-miterlimit="10" stroke-linejoin="miter" fill="none" stroke="#000000" d="M493.691-250.125H496.746"/>
<text xml:space="preserve" transform="matrix(1 0 0 1 -114.527378 -191.13184)" font-size="9.958844" font-family="CMTI10" font-style="italic"><tspan y="250.32559" x="496.7474 503.4995 510.75953 517.5116">PRED</tspan></text>
<text xml:space="preserve" transform="matrix(1 0 0 1 -114.527378 -191.13184)" font-size="9.958844" font-family="CMBX10" font-weight="bold"><tspan y="250.32559" x="529.2929 534.8599 538.0368 543.7631 548.47366">alors</tspan></text>
<path transform="matrix(1,0,0,-1,-114.527378,-191.13184)" stroke-width=".39785" stroke-linecap="butt" stroke-miterlimit="10" stroke-linejoin="miter" fill="none" stroke="#000000" d="M150.461-289.762V-253.91"/>
<text xml:space="preserve" transform="matrix(1 0 0 1 -114.527378 -191.13184)" font-size="6.971171" font-family="CMBX7" font-weight="bold"><tspan y="262.2771" x="121.24902">4</tspan></text>
<text xml:space="preserve" transform="matrix(1 0 0 1 -114.527378 -191.13184)" font-size="9.958844" font-family="CMTI10" font-style="italic"><tspan y="262.2771" x="160.61717 169.5403 174.12137 177.4277 180.73404 184.43874 192.58507 195.12458 203.77881 207.85198 212.94095 217.00415 225.16045 229.22365 231.76316 234.81056 239.39163 244.98851 249.56958 256.21214 260.28529 265.37425 267.91377 273.00273 278.59959 284.19645 288.7775 296.41593 301.50489 309.6512 312.19075 320.84498 325.42604 329.6187 332.6661 335.73347 338.27299 346.42927 346.41929 355.07353 359.65458 362.70198 367.79093">Mettrelacase(ligne,colonne)delagrille`avide</tspan></text>
<text xml:space="preserve" transform="matrix(1 0 0 1 -114.527378 -191.13184)" font-size="9.958844" font-family="CMR10"><tspan y="262.2771" x="373.13883">;</tspan></text>
<text xml:space="preserve" transform="matrix(1 0 0 1 -114.527378 -191.13184)" font-size="6.971171" font-family="CMBX7" font-weight="bold"><tspan y="274.22758" x="121.24902">5</tspan></text>
<text xml:space="preserve" transform="matrix(1 0 0 1 -114.527378 -191.13184)" font-size="9.958844" font-family="CMTI10" font-style="italic"><tspan y="274.22758" x="160.61717 167.87717 168.13611 172.71718 177.29825 181.24195 181.50089 186.08196 194.21834 198.79941 204.39629 207.70262 212.28369 220.05159 222.5911 230.73743 234.8106 239.89957 248.03595 253.12493 256.43128 261.01234 266.35029 274.13813 279.22709 287.3734 292.46238 296.4061 296.65507 301.2361 306.32508 311.41404 314.72038 319.30143 324.63938 328.83207 336.49043 341.57939 349.7257 352.26524 360.91947 365.50053 369.6932 372.7406 375.80796 378.34748">D&#x00b4;ecr&#x00b4;ementerlecompteurdepr&#x00b4;edateursdelagrille</tspan></text>
<text xml:space="preserve" transform="matrix(1 0 0 1 -114.527378 -191.13184)" font-size="9.958844" font-family="CMR10"><tspan y="274.22758" x="383.6854">;</tspan></text>
<text xml:space="preserve" transform="matrix(1 0 0 1 -114.527378 -191.13184)" font-size="6.971171" font-family="CMBX7" font-weight="bold"><tspan y="286.17808" x="121.24902">6</tspan></text>
<text xml:space="preserve" transform="matrix(1 0 0 1 -114.527378 -191.13184)" font-size="9.958844" font-family="CMBX10" font-weight="bold"><tspan y="286.17808" x="160.61717 165.32772 170.57602 175.02762 180.75395 187.1077 191.81824 198.20186 203.45017">retourner</tspan></text>
<text xml:space="preserve" transform="matrix(1 0 0 1 -114.527378 -191.13184)" font-size="9.958844" font-family="CMR10"><tspan y="286.17808" x="211.48696">;</tspan></text>
<text xml:space="preserve" transform="matrix(1 0 0 1 -114.527378 -191.13184)" font-size="6.971171" font-family="CMBX7" font-weight="bold"><tspan y="299.12419" x="120.850177">7</tspan></text>
<text xml:space="preserve" transform="matrix(1 0 0 1 -114.527378 -191.13184)" font-size="9.958844" font-family="CMBX10" font-weight="bold"><tspan y="299.12419" x="145.27997">&#xfb01;</tspan></text>
<text xml:space="preserve" transform="matrix(1 0 0 1 -114.527378 -191.13184)" font-size="9.958844" font-family="CMBX10" font-weight="bold"><tspan y="299.12419" x="151.63372">n</tspan></text>
<text xml:space="preserve" transform="matrix(1 0 0 1 -114.527378 -191.13184)" font-size="6.971171" font-family="CMBX7" font-weight="bold"><tspan y="311.07569" x="120.850177">8</tspan></text>
<text xml:space="preserve" transform="matrix(1 0 0 1 -114.527378 -191.13184)" font-size="9.958844" font-family="CMTI10" font-style="italic"><tspan y="311.07569" x="145.27997 152.40055 157.48952 162.07059 165.76532 170.34639 175.43537 180.01644 187.78433 193.12227 202.28441 206.86548 211.95446 215.00186 219.06507 222.14235 231.30449 236.39347 241.7314 245.03774 250.12671 255.46465 263.2425 268.33146 276.47779 279.0173 287.67155 291.7447 296.83366 300.89686 309.05314 313.11634 315.65586 318.70326 323.2843 328.88117 333.46223 340.10478 344.17793 349.26689 351.8064 356.89537 362.49223 368.08909 372.67015 380.30857 384.88963 390.22758 396.86015 400.9333 406.02226 411.6191 414.92546 417.97285 422.5539 428.15077 435.03233 440.37028 445.96714 454.11347 459.20243 462.89717 467.9861 471.0335">Chercherunvoisinautourdelacase(ligne,colonne)quicontientuneproie</tspan></text>
<text xml:space="preserve" transform="matrix(1 0 0 1 -114.527378 -191.13184)" font-size="9.958844" font-family="CMR10"><tspan y="311.07569" x="476.37144">;</tspan></text>
<text xml:space="preserve" transform="matrix(1 0 0 1 -114.527378 -191.13184)" font-size="6.971171" font-family="CMBX7" font-weight="bold"><tspan y="323.02619" x="120.850177">9</tspan></text>
<text xml:space="preserve" transform="matrix(1 0 0 1 -114.527378 -191.13184)" font-size="9.958844" font-family="CMBX10" font-weight="bold"><tspan y="323.02619" x="145.27997 149.79132">si</tspan></text>
<text xml:space="preserve" transform="matrix(1 0 0 1 -114.527378 -191.13184)" font-size="9.958844" font-family="CMTI10" font-style="italic"><tspan y="323.02619" x="156.29444 159.34185 165.46654 170.0476 174.65856 177.70597 181.76917 185.0755 193.2318 198.56974 207.74184 212.3229 217.41188 220.45929 224.52249 227.59978 236.76192 241.85089 246.43196 250.50513 258.65147 263.9894 269.58628 277.7326 282.82157 286.5163 291.60527 294.65266">ilexisteunvoisinavecuneproie</tspan></text>
<text xml:space="preserve" transform="matrix(1 0 0 1 -114.527378 -191.13184)" font-size="9.958844" font-family="CMBX10" font-weight="bold"><tspan y="323.02619" x="303.3069 308.87388 312.05076 317.7771 322.48765">alors</tspan></text>
<path transform="matrix(1,0,0,-1,-114.527378,-191.13184)" stroke-width=".39785" stroke-linecap="butt" stroke-miterlimit="10" stroke-linejoin="miter" fill="none" stroke="#000000" d="M150.461-495.91V-326.609"/>
<text xml:space="preserve" transform="matrix(1 0 0 1 -114.527378 -191.13184)" font-size="6.971171" font-family="CMBX7" font-weight="bold"><tspan y="334.97666" x="116.736728 121.24707">10</tspan></text>
<text xml:space="preserve" transform="matrix(1 0 0 1 -114.527378 -191.13184)" font-size="9.958844" font-family="CMTI10" font-style="italic"><tspan y="334.97666" x="160.61717 167.36927 171.95034 177.54721 182.63619 186.33092 194.47725 197.01676 200.06417 205.15314 210.75002 213.79743 221.96369 227.05266 233.15743 238.7543 243.84328 253.01538 258.10435 261.15174 265.21495 269.81593 274.90489 280.50175 283.54914 288.1302 290.6697 298.826 303.40705 308.496 313.83396 321.60188 326.44187 326.69084 331.27189 336.36085 338.90037 343.98933 348.07243 352.65348 360.78987 365.3709 370.96778">Rendrel&#x2019;animalnondisponiblepourd&#x00b4;eplacement</tspan></text>
<text xml:space="preserve" transform="matrix(1 0 0 1 -114.527378 -191.13184)" font-size="9.958844" font-family="CMR10"><tspan y="334.97666" x="375.23017">;</tspan></text>
<text xml:space="preserve" transform="matrix(1 0 0 1 -114.527378 -191.13184)" font-size="6.971171" font-family="CMBX7" font-weight="bold"><tspan y="346.92716" x="116.736728 121.24707">11</tspan></text>
<text xml:space="preserve" transform="matrix(1 0 0 1 -114.527378 -191.13184)" font-size="9.958844" font-family="CMTI10" font-style="italic"><tspan y="346.92716" x="160.61717 168.0166 171.06401 176.15299 181.49092 184.79726 189.37833 197.16614 204.56555 209.79395 217.42243 224.82184">AjouterAJOUT</tspan></text>
<path transform="matrix(1,0,0,-1,-114.527378,-191.13184)" stroke-width=".39785" stroke-linecap="butt" stroke-miterlimit="10" stroke-linejoin="miter" fill="none" stroke="#000000" d="M232.566-346.727H235.621"/>
<text xml:space="preserve" transform="matrix(1 0 0 1 -114.527378 -191.13184)" font-size="9.958844" font-family="CMTI10" font-style="italic"><tspan y="346.92716" x="235.61989 242.37198 249.7714 256.5235 263.5445 271.24269 275.07685 285.40419 285.40419 294.0584 296.59794 299.39637 299.65528 304.23634 309.8332 314.41426 318.10899 322.69004 325.73744 333.88377 338.97273 347.11906 349.65858 352.70597 357.79493 363.39179 366.43919 374.60545 379.6944">ENERGIE`al&#x2019;&#x00b4;energiedel&#x2019;animal</tspan></text>
<text xml:space="preserve" transform="matrix(1 0 0 1 -114.527378 -191.13184)" font-size="9.958844" font-family="CMR10"><tspan y="346.92716" x="383.26963">;</tspan></text>
<text xml:space="preserve" transform="matrix(1 0 0 1 -114.527378 -191.13184)" font-size="6.971171" font-family="CMBX7" font-weight="bold"><tspan y="358.87767" x="116.736728 121.24707">12</tspan></text>
<text xml:space="preserve" transform="matrix(1 0 0 1 -114.527378 -191.13184)" font-size="9.958844" font-family="CMTI10" font-style="italic"><tspan y="358.87767" x="160.61717 169.5403 174.12137 177.4277 180.73404 184.43874 192.58507 192.58507 201.22936 204.27677 209.36574 214.70368 222.48154 225.02104 233.68524 238.26631 242.45899 245.5064 248.57372 251.11322 259.2496 264.33857 268.91963 273.00273 281.14906 283.68858 292.3428 297.93968 303.02864 308.36659 312.94764 317.5287 320.59605 323.13557 331.2819 335.35505 340.444 344.5072 352.65354 357.7425 361.69618 361.94514 366.52619 371.61515 376.7041 380.01045 384.5915 389.92945 397.7073 397.7073 406.36155 408.90107 417.5553 422.13636 427.2253 431.2885 434.3359 437.64225 440.7195 445.80848 454.9706 460.05958 468.97276 473.5538 478.64277 481.69017 485.75337 488.80076">Mettre`ajourlagrilleaveclanouvellecasepr&#x00b4;edateur`alapositionduvoisin</tspan></text>
<text xml:space="preserve" transform="matrix(1 0 0 1 -114.527378 -191.13184)" font-size="9.958844" font-family="CMR10"><tspan y="358.87767" x="495.18437">;</tspan></text>
<text xml:space="preserve" transform="matrix(1 0 0 1 -114.527378 -191.13184)" font-size="6.971171" font-family="CMBX7" font-weight="bold"><tspan y="370.82817" x="116.736728 121.24707">13</tspan></text>
<text xml:space="preserve" transform="matrix(1 0 0 1 -114.527378 -191.13184)" font-size="9.958844" font-family="CMTI10" font-style="italic"><tspan y="370.82817" x="160.61717 169.5403 174.12137 177.4277 180.73404 184.43874 192.58507 195.12458 203.77881 207.85198 212.94095 217.00415 225.16045 229.22365 231.76316 234.81056 239.39163 244.98851 249.56958 256.21214 260.28529 265.37425 267.91377 273.00273 278.59959 284.19645 288.7775 296.41593 301.50489 309.6512 312.19075 320.84498 325.42604 329.6187 332.6661 335.73347 338.27299 346.42927 346.41929 355.07353 359.65458 362.70198 367.79093">Mettrelacase(ligne,colonne)delagrille`avide</tspan></text>
<text xml:space="preserve" transform="matrix(1 0 0 1 -114.527378 -191.13184)" font-size="9.958844" font-family="CMR10"><tspan y="370.82817" x="373.13883">;</tspan></text>
<text xml:space="preserve" transform="matrix(1 0 0 1 -114.527378 -191.13184)" font-size="6.971171" font-family="CMBX7" font-weight="bold"><tspan y="382.77964" x="116.736728 121.24707">14</tspan></text>
<text xml:space="preserve" transform="matrix(1 0 0 1 -114.527378 -191.13184)" font-size="9.958844" font-family="CMTI10" font-style="italic"><tspan y="382.77964" x="160.61717 167.87717 168.13611 172.71718 177.29825 181.24195 181.50089 186.08196 194.21834 198.79941 204.39629 207.70262 212.28369 220.05159 222.5911 230.73743 234.8106 239.89957 248.03595 253.12493 256.43128 261.01234 266.35029 274.13813 279.22709 287.3734 292.46238 296.14717 301.2361 304.2835 308.86457 316.51295 321.6019 329.74824 332.28776 340.942 345.52305 349.71574 352.76313 355.83049 358.37">D&#x00b4;ecr&#x00b4;ementerlecompteurdeproiesdelagrille</tspan></text>
<text xml:space="preserve" transform="matrix(1 0 0 1 -114.527378 -191.13184)" font-size="9.958844" font-family="CMR10"><tspan y="382.77964" x="363.70793">;</tspan></text>
<text xml:space="preserve" transform="matrix(1 0 0 1 -114.527378 -191.13184)" font-size="6.971171" font-family="CMBX7" font-weight="bold"><tspan y="394.73014" x="116.736728 121.24707">15</tspan></text>
<text xml:space="preserve" transform="matrix(1 0 0 1 -114.527378 -191.13184)" font-size="9.958844" font-family="CMBX10" font-weight="bold"><tspan y="394.73014" x="160.61717 165.12853">si</tspan></text>
<text xml:space="preserve" transform="matrix(1 0 0 1 -114.527378 -191.13184)" font-size="9.958844" font-family="CMTI10" font-style="italic"><tspan y="394.73014" x="171.63164 171.63164 176.72061 181.30168 189.45798 194.54695 202.68334 205.22284 208.27025 213.35923 218.9561 222.00351 230.16977 235.25875">&#x02c6;agedel&#x2019;animal</tspan></text>
<text xml:space="preserve" transform="matrix(1 0 0 1 -114.527378 -191.13184)" font-size="9.958844" font-family="CMSY10" font-style="italic"><tspan y="394.73014" x="241.37348">&#x2265;</tspan></text>
<text xml:space="preserve" transform="matrix(1 0 0 1 -114.527378 -191.13184)" font-size="9.958844" font-family="CMTI10" font-style="italic"><tspan y="394.73014" x="252.67676 260.07618">NB</tspan></text>
<path transform="matrix(1,0,0,-1,-114.527378,-191.13184)" stroke-width=".39785" stroke-linecap="butt" stroke-miterlimit="10" stroke-linejoin="miter" fill="none" stroke="#000000" d="M267.703-394.531H270.754"/>
<text xml:space="preserve" transform="matrix(1 0 0 1 -114.527378 -191.13184)" font-size="9.958844" font-family="CMTI10" font-style="italic"><tspan y="394.73014" x="270.75566 275.98405 283.24406">JRS</tspan></text>
<path transform="matrix(1,0,0,-1,-114.527378,-191.13184)" stroke-width=".39785" stroke-linecap="butt" stroke-miterlimit="10" stroke-linejoin="miter" fill="none" stroke="#000000" d="M289.457-394.531H292.512"/>
<text xml:space="preserve" transform="matrix(1 0 0 1 -114.527378 -191.13184)" font-size="9.958844" font-family="CMTI10" font-style="italic"><tspan y="394.73014" x="292.51246 299.26457 306.66398 313.66505 320.41716 326.93025 334.0508">PUBERTE</tspan></text>
<path transform="matrix(1,0,0,-1,-114.527378,-191.13184)" stroke-width=".39785" stroke-linecap="butt" stroke-miterlimit="10" stroke-linejoin="miter" fill="none" stroke="#000000" d="M341.43-394.531H344.484"/>
<text xml:space="preserve" transform="matrix(1 0 0 1 -114.527378 -191.13184)" font-size="9.958844" font-family="CMTI10" font-style="italic"><tspan y="394.73014" x="344.48286 351.23497 358.49497 365.24708">PRED</tspan></text>
<text xml:space="preserve" transform="matrix(1 0 0 1 -114.527378 -191.13184)" font-size="9.958844" font-family="CMBXTI10" font-weight="bold" font-style="italic"><tspan y="394.73014" x="376.34123 381.6393">et</tspan></text>
<text xml:space="preserve" transform="matrix(1 0 0 1 -114.527378 -191.13184)" font-size="9.958844" font-family="CMTI10" font-style="italic"><tspan y="394.73014" x="389.03877 392.08616 397.1751 402.51307 406.70576 414.3641 419.45307 427.58943 432.17048 436.75154 440.81474 444.12107 449.21003 452.51637 455.56376 460.6826 469.83476 474.9237 483.08 485.6195 488.6669 493.75587 499.35273 502.40013 510.56639 515.65536">joursdegestationdel&#x2019;animal</tspan></text>
<text xml:space="preserve" transform="matrix(1 0 0 1 -114.527378 -191.13184)" font-size="9.958844" font-family="CMSY10" font-style="italic"><tspan y="394.73014" x="521.7601">&#x2265;</tspan></text>
<text xml:space="preserve" transform="matrix(1 0 0 1 -114.527378 -191.13184)" font-size="9.958844" font-family="CMTI10" font-style="italic"><tspan y="394.73014" x="533.0733 540.4727">NB</tspan></text>
<path transform="matrix(1,0,0,-1,-114.527378,-191.13184)" stroke-width=".39785" stroke-linecap="butt" stroke-miterlimit="10" stroke-linejoin="miter" fill="none" stroke="#000000" d="M548.094-394.531H551.148"/>
<text xml:space="preserve" transform="matrix(1 0 0 1 -114.527378 -191.13184)" font-size="9.958844" font-family="CMTI10" font-style="italic"><tspan y="394.73014" x="551.1469 556.3753 563.6353">JRS</tspan></text>
<path transform="matrix(1,0,0,-1,-114.527378,-191.13184)" stroke-width=".39785" stroke-linecap="butt" stroke-miterlimit="10" stroke-linejoin="miter" fill="none" stroke="#000000" d="M569.852-394.531H572.902"/>
<text xml:space="preserve" transform="matrix(1 0 0 1 -114.527378 -191.13184)" font-size="9.958844" font-family="CMTI10" font-style="italic"><tspan y="394.73014" x="572.9037 580.60189 587.35397 592.9508 599.32449 605.967 613.0875 616.9217 624.5502">GESTATION</tspan></text>
<path transform="matrix(1,0,0,-1,-114.527378,-191.13184)" stroke-width=".39785" stroke-linecap="butt" stroke-miterlimit="10" stroke-linejoin="miter" fill="none" stroke="#000000" d="M632.578-394.531H635.633"/>
<text xml:space="preserve" transform="matrix(1 0 0 1 -114.527378 -191.13184)" font-size="9.958844" font-family="CMTI10" font-style="italic"><tspan y="394.73014" x="635.63308 642.38516 649.64517 656.3972">PRED</tspan></text>
<text xml:space="preserve" transform="matrix(1 0 0 1 -114.527378 -191.13184)" font-size="9.958844" font-family="CMBX10" font-weight="bold"><tspan y="394.73014" x="668.1785 673.74557 676.9224 682.64877 687.35928">alors</tspan></text>
<path transform="matrix(1,0,0,-1,-114.527378,-191.13184)" stroke-width=".39785" stroke-linecap="butt" stroke-miterlimit="10" stroke-linejoin="miter" fill="none" stroke="#000000" d="M165.797-482.965V-398.316"/>
<text xml:space="preserve" transform="matrix(1 0 0 1 -114.527378 -191.13184)" font-size="6.971171" font-family="CMBX7" font-weight="bold"><tspan y="406.68064" x="117.135578 121.64592">16</tspan></text>
<text xml:space="preserve" transform="matrix(1 0 0 1 -114.527378 -191.13184)" font-size="9.958844" font-family="CMTI10" font-style="italic"><tspan y="406.68064" x="175.9534 182.96442 183.22336 187.80443 190.85184 196.44872 199.49613 202.80246 205.84987 210.93885 213.50823 216.55564 220.61884 225.1999 232.97777 235.51728 240.09835 247.73677 250.78418 255.87316 261.2111 265.40379 273.06214 278.1511 286.29743 290.87849 295.45954 299.52275 302.82908 307.91804 311.22438 314.27177 319.36073 328.54277 333.6317 341.76808 344.3076 347.35499 352.44395 358.0408 361.0882 369.25447 374.3434 380.45817 380.45817 389.1124">R&#x00b4;einitialiserlesjoursdegestationdel&#x2019;animal`a0</tspan></text>
<text xml:space="preserve" transform="matrix(1 0 0 1 -114.527378 -191.13184)" font-size="9.958844" font-family="CMR10"><tspan y="406.68064" x="395.55577">;</tspan></text>
<text xml:space="preserve" transform="matrix(1 0 0 1 -114.527378 -191.13184)" font-size="6.971171" font-family="CMBX7" font-weight="bold"><tspan y="418.63114" x="117.135578 121.64592">17</tspan></text>
<text xml:space="preserve" transform="matrix(1 0 0 1 -114.527378 -191.13184)" font-size="9.958844" font-family="CMTI10" font-style="italic"><tspan y="418.63114" x="175.9534 184.87653 189.4576 192.76393 196.07027 199.77497 207.9213 207.9213 216.56558 219.61299 224.70197 230.0399 237.81777 240.35727 243.40468 248.49365 254.09053 257.16783 265.3042 270.39317 276.5079 281.59687 286.68583 292.28269 299.91117 302.45069 311.11488 315.69593 319.8886 322.936 326.00337 328.54289 336.69917 336.69917 345.3534 347.8929 356.53718 361.12818 366.21714 370.28034 373.32774 376.63407 379.68147 384.77043 393.95246 399.0414 407.9546 412.53565 417.6246 420.672 424.7352 427.81248">Mettre`ajourl&#x2019;animaldanslagrille`alapositionduvoisin</tspan></text>
<text xml:space="preserve" transform="matrix(1 0 0 1 -114.527378 -191.13184)" font-size="9.958844" font-family="CMR10"><tspan y="418.63114" x="434.1662">;</tspan></text>
<text xml:space="preserve" transform="matrix(1 0 0 1 -114.527378 -191.13184)" font-size="6.971171" font-family="CMBX7" font-weight="bold"><tspan y="430.5816" x="117.135578 121.64592">18</tspan></text>
<text xml:space="preserve" transform="matrix(1 0 0 1 -114.527378 -191.13184)" font-size="9.958844" font-family="CMTI10" font-style="italic"><tspan y="430.5816" x="175.9534 183.07398 188.16295 192.74402 196.43875 201.01982 206.1088 210.68987 218.45777 223.7957 232.95784 237.53891 242.62789 245.6753 249.7385 252.81578 261.97795 267.0669 272.40486 275.71119 280.80015 286.1381 293.91596 299.0049 307.9181 313.51496 318.6039 323.94187 328.52293 333.10398 339.21873 343.79978 351.93617 357.02513 359.56465 364.6536 368.7367 373.31776 381.45414 386.0352 391.63206 398.5136 403.60258 411.7489 414.28843 417.33583 422.42478 428.02165 431.0989 439.2353 444.32426 450.42906 455.0101 460.34806 466.98063 471.56169 475.62489 482.50645 487.0875 490.1349 495.22386">Chercherunvoisinautourdunouvelemplacementdel&#x2019;animalquiestvide</tspan></text>
<text xml:space="preserve" transform="matrix(1 0 0 1 -114.527378 -191.13184)" font-size="9.958844" font-family="CMR10"><tspan y="430.5816" x="500.56178">;</tspan></text>
<text xml:space="preserve" transform="matrix(1 0 0 1 -114.527378 -191.13184)" font-size="6.971171" font-family="CMBX7" font-weight="bold"><tspan y="442.5321" x="117.135578 121.64592">19</tspan></text>
<text xml:space="preserve" transform="matrix(1 0 0 1 -114.527378 -191.13184)" font-size="9.958844" font-family="CMBX10" font-weight="bold"><tspan y="442.5321" x="175.9534 180.46475">si</tspan></text>
<text xml:space="preserve" transform="matrix(1 0 0 1 -114.527378 -191.13184)" font-size="9.958844" font-family="CMTI10" font-style="italic"><tspan y="442.5321" x="186.96787 190.01528 196.13997 200.72104 205.33199 208.3794 212.4426 215.74893 223.90523 229.24317 238.41527 242.99634 248.08531 251.13272 255.19593 258.2732 267.43534 272.0164 275.06379 280.15275">ilexisteunvoisinvide</tspan></text>
<text xml:space="preserve" transform="matrix(1 0 0 1 -114.527378 -191.13184)" font-size="9.958844" font-family="CMBX10" font-weight="bold"><tspan y="442.5321" x="288.80699 294.37397 297.55085 303.2772 307.98774">alors</tspan></text>
<path transform="matrix(1,0,0,-1,-114.527378,-191.13184)" stroke-width=".39785" stroke-linecap="butt" stroke-miterlimit="10" stroke-linejoin="miter" fill="none" stroke="#000000" d="M181.133-470.02V-446.117"/>
<text xml:space="preserve" transform="matrix(1 0 0 1 -114.527378 -191.13184)" font-size="6.971171" font-family="CMBX7" font-weight="bold"><tspan y="454.4826" x="117.533428 122.04377">20</tspan></text>
<text xml:space="preserve" transform="matrix(1 0 0 1 -114.527378 -191.13184)" font-size="9.958844" font-family="CMTI10" font-style="italic"><tspan y="454.4826" x="191.2906 198.41118 202.35488 202.61382 207.19489 211.77596 219.54386 224.88179 234.04393 239.64081 244.72978 250.06772 254.64879 258.7319 263.82087 272.73405 277.823 281.76673 282.02565 286.6067 291.69566 296.7846 300.09095 304.672 310.00996 317.77787 322.86683 327.44789 331.52104 339.66737 344.75633 349.33738 356.9758 361.55686 366.6458 369.18534 373.7664 379.10435 383.29704 390.95539 395.53645 400.6254 408.37339 413.22334 413.4723 418.05335 421.10075 426.1897 431.52766 438.4092 442.99028 449.87184 452.41136 460.5477 465.63667 468.17619 473.26515 477.34825 481.9293 489.6972 494.78617 499.87513 505.472 513.1104 515.6499 524.3141 528.37728 533.46627 537.5295 545.6857 550.2668 553.3142 558.4032">Cr&#x00b4;eerunnouveaupr&#x00b4;edateuravecdesvaleurspard&#x00b4;efautetleplacerdanslacasevide</tspan></text>
<text xml:space="preserve" transform="matrix(1 0 0 1 -114.527378 -191.13184)" font-size="9.958844" font-family="CMR10"><tspan y="454.4826" x="563.74118">;</tspan></text>
<text xml:space="preserve" transform="matrix(1 0 0 1 -114.527378 -191.13184)" font-size="6.971171" font-family="CMBX7" font-weight="bold"><tspan y="466.43409" x="117.533428 122.04377">21</tspan></text>
<text xml:space="preserve" transform="matrix(1 0 0 1 -114.527378 -191.13184)" font-size="9.958844" font-family="CMTI10" font-style="italic"><tspan y="466.43409" x="191.2906 195.12476 200.72164 205.3027 209.2464 209.51529 214.09636 222.23274 226.81381 232.41069 235.71703 240.2981 248.066 250.6055 258.75184 262.82499 267.91395 276.05033 281.13929 284.44563 289.02668 294.36463 302.15248 307.24143 315.38777 320.4767 324.42045 324.67936 329.2604 334.34938 339.43833 342.74467 347.3257 352.66368 356.85636 364.49479 369.58375 377.73008 380.2696 388.93379 393.51484 397.70753 400.7549 403.82228 406.3618">Incr&#x00b4;ementerlecompteurdepr&#x00b4;edateursdelagrille</tspan></text>
<text xml:space="preserve" transform="matrix(1 0 0 1 -114.527378 -191.13184)" font-size="9.958844" font-family="CMR10"><tspan y="466.43409" x="411.6997">;</tspan></text>
<text xml:space="preserve" transform="matrix(1 0 0 1 -114.527378 -191.13184)" font-size="6.971171" font-family="CMBX7" font-weight="bold"><tspan y="479.38023" x="117.135578 121.64592">22</tspan></text>
<text xml:space="preserve" transform="matrix(1 0 0 1 -114.527378 -191.13184)" font-size="9.958844" font-family="CMBX10" font-weight="bold"><tspan y="479.38023" x="175.9534">&#xfb01;</tspan></text>
<text xml:space="preserve" transform="matrix(1 0 0 1 -114.527378 -191.13184)" font-size="9.958844" font-family="CMBX10" font-weight="bold"><tspan y="479.38023" x="182.30715">n</tspan></text>
<text xml:space="preserve" transform="matrix(1 0 0 1 -114.527378 -191.13184)" font-size="6.971171" font-family="CMBX7" font-weight="bold"><tspan y="492.32734" x="116.736728 121.24707">23</tspan></text>
<text xml:space="preserve" transform="matrix(1 0 0 1 -114.527378 -191.13184)" font-size="9.958844" font-family="CMBX10" font-weight="bold"><tspan y="492.32734" x="160.61717">&#xfb01;</tspan></text>
<text xml:space="preserve" transform="matrix(1 0 0 1 -114.527378 -191.13184)" font-size="9.958844" font-family="CMBX10" font-weight="bold"><tspan y="492.32734" x="166.97092">n</tspan></text>
<text xml:space="preserve" transform="matrix(1 0 0 1 -114.527378 -191.13184)" font-size="6.971171" font-family="CMBX7" font-weight="bold"><tspan y="505.27345" x="116.338878 120.84922">24</tspan></text>
<text xml:space="preserve" transform="matrix(1 0 0 1 -114.527378 -191.13184)" font-size="9.958844" font-family="CMBX10" font-weight="bold"><tspan y="505.27345" x="145.27997 149.79132 152.96819 159.32193 165.04827">sinon</tspan></text>
<path transform="matrix(1,0,0,-1,-114.527378,-191.13184)" stroke-width=".39785" stroke-linecap="butt" stroke-miterlimit="10" stroke-linejoin="miter" fill="none" stroke="#000000" d="M150.461-532.762V-508.859"/>
<text xml:space="preserve" transform="matrix(1 0 0 1 -114.527378 -191.13184)" font-size="6.971171" font-family="CMBX7" font-weight="bold"><tspan y="517.22396" x="116.736728 121.24707">25</tspan></text>
<text xml:space="preserve" transform="matrix(1 0 0 1 -114.527378 -191.13184)" font-size="9.958844" font-family="CMTI10" font-style="italic"><tspan y="517.22396" x="160.61717 167.87717 168.13611 172.71718 177.29825 181.24195 181.50089 186.08196 194.21834 198.79941 204.39629 207.70262 212.28369 220.05159 222.5911 225.39949 225.64847 230.22954 235.82642 240.40749 244.10222 248.68329 251.7307 259.887 264.97596 273.12229 275.6618 278.7092 283.79817 289.39503 292.4424 300.60868 305.69764 311.80244 316.8914 325.03773">D&#x00b4;ecr&#x00b4;ementerl&#x2019;&#x00b4;energiedel&#x2019;animalde1</tspan></text>
<text xml:space="preserve" transform="matrix(1 0 0 1 -114.527378 -191.13184)" font-size="9.958844" font-family="CMR10"><tspan y="517.22396" x="331.48109">;</tspan></text>
<text xml:space="preserve" transform="matrix(1 0 0 1 -114.527378 -191.13184)" font-size="6.971171" font-family="CMBX7" font-weight="bold"><tspan y="529.17446" x="116.736728 121.24707">26</tspan></text>
<text xml:space="preserve" transform="matrix(1 0 0 1 -114.527378 -191.13184)" font-size="9.958844" font-family="CMTI10" font-style="italic"><tspan y="529.17446" x="160.61717 167.87717 168.13611 172.71718 177.80615 180.34566 185.43463 189.51776 194.09883 201.85677 204.39627 207.44368 212.53266 218.12953 221.17694 229.3432 234.43218 240.53694 245.11801 249.69908 253.89176 261.54014 266.87809 272.47496 280.63124 284.69444 289.7834 293.8466 302.00288 306.58393 311.67289 314.72029 318.78349 321.83088 327.42774 335.59397 340.68293 343.73033 347.79353 352.3945 357.48347 363.08033 366.12773 370.70878 373.2483 381.41453 386.50349 395.4067 397.94624 406.09257 408.63209 413.72105 416.76844 420.8615 424.9247 429.50578 437.27369 441.33689 446.67485 454.44276 459.5317 462.07124 467.1602 471.2433 479.38963 483.45283 490.0854 495.17436 500.5123 505.09336 510.4313 519.6034 524.4434 524.6924 529.27346 534.3624 536.9019 541.9909 546.07406 550.6551 558.79147 563.3725 568.96939 575.8509 580.43197 583.4794 588.0604 592.12368 599.0152 603.5863 608.6753 612.7385 616.80178 619.8492 624.43026 626.9996">D&#x00b4;eplacerl&#x2019;animalversunecasevoisinedisponibleoulelaissersurplacesiaucund&#x00b4;eplacementn&#x2019;estpossible</tspan></text>
<text xml:space="preserve" transform="matrix(1 0 0 1 -114.527378 -191.13184)" font-size="9.958844" font-family="CMR10"><tspan y="529.17446" x="632.3375">;</tspan></text>
<text xml:space="preserve" transform="matrix(1 0 0 1 -114.527378 -191.13184)" font-size="6.971171" font-family="CMBX7" font-weight="bold"><tspan y="542.1215" x="116.338878 120.84922">27</tspan></text>
<text xml:space="preserve" transform="matrix(1 0 0 1 -114.527378 -191.13184)" font-size="9.958844" font-family="CMBX10" font-weight="bold"><tspan y="542.1215" x="145.27997">&#xfb01;</tspan></text>
<text xml:space="preserve" transform="matrix(1 0 0 1 -114.527378 -191.13184)" font-size="9.958844" font-family="CMBX10" font-weight="bold"><tspan y="542.1215" x="151.63372">n</tspan></text>
<text xml:space="preserve" transform="matrix(1 0 0 1 -114.527378 -191.13184)" font-size="6.971171" font-family="CMBX7" font-weight="bold"><tspan y="555.0677" x="115.940029 120.45037">28</tspan></text>
<text xml:space="preserve" transform="matrix(1 0 0 1 -114.527378 -191.13184)" font-size="9.958844" font-family="CMBX10" font-weight="bold"><tspan y="555.0677" x="129.94374">&#xfb01;</tspan></text>
<text xml:space="preserve" transform="matrix(1 0 0 1 -114.527378 -191.13184)" font-size="9.958844" font-family="CMBX10" font-weight="bold"><tspan y="555.0677" x="136.29749">n</tspan></text>
<path transform="matrix(1,0,0,-1,-114.527378,-191.13184)" stroke-width=".7967" stroke-linecap="butt" stroke-miterlimit="10" stroke-linejoin="miter" fill="none" stroke="#000000" d="M115.004-561.043H726.773"/>
</g>
</svg>
