<svg xmlns="http://www.w3.org/2000/svg" xmlns:xlink="http://www.w3.org/1999/xlink" version="1.1" width="612.0768pt" height="225.0321pt" viewBox="0 0 612.0768 225.0321">
<g>
<style>
    svg  { background-color:#ffffff }
</style>
<path transform="matrix(1,0,0,-1,-114.527378,-191.13184)" stroke-width=".7967" stroke-linecap="butt" stroke-miterlimit="10" stroke-linejoin="miter" fill="none" stroke="#000000" d="M115.004-191.535H726.773"/>
<text xml:space="preserve" transform="matrix(1 0 0 1 -114.527378 -191.13184)" font-size="9.958844" font-family="CMBX10" font-weight="bold"><tspan y="200.84125" x="122.47456 131.1288 134.30567 140.032 145.75833 150.46887 153.64574 158.09734 164.48096 174.02153 183.08408 192.63462">Algorithme5:</tspan></text>
<text xml:space="preserve" transform="matrix(1 0 0 1 -114.527378 -191.13184)" font-size="9.958844" font-family="CMR10"><tspan y="200.84125" x="199.13773 205.90975 210.88916 211.168 215.58972 220.01145 225.5386 229.43251 232.19112 237.17053 246.02394 251.5511 254.30971 259.83686 268.71018 273.1319 278.38023 282.80195 285.59043 293.32844 299.1444 304.12385 309.651 316.8712 319.6298 327.9355 332.91493 336.80885 339.56745 342.32606 345.11454">Ex&#x00b4;ecutiond&#x2019;uncyclepourlagrille</tspan></text>
<path transform="matrix(1,0,0,-1,-114.527378,-191.13184)" stroke-width=".7967" stroke-linecap="butt" stroke-miterlimit="10" stroke-linejoin="miter" fill="none" stroke="#000000" d="M115.004-205.168H726.773"/>
<text xml:space="preserve" transform="matrix(1 0 0 1 -114.527378 -191.13184)" font-size="9.958844" font-family="CMBX10" font-weight="bold"><tspan y="214.47412" x="129.94374 137.46266 143.51764 147.96924 152.44077 152.67978 157.92809 163.17639 171.51195">Entr&#x00b4;ees:</tspan></text>
<text xml:space="preserve" transform="matrix(1 0 0 1 -114.527378 -191.13184)" font-size="9.958844" font-family="CMR10"><tspan y="214.47412" x="178.01506 182.99448 186.88838 189.64699 192.4056 195.19408">grille</tspan></text>
<text xml:space="preserve" transform="matrix(1 0 0 1 -114.527378 -191.13184)" font-size="6.971171" font-family="CMBX7" font-weight="bold"><tspan y="226.4246" x="120.452327">1</tspan></text>
<text xml:space="preserve" transform="matrix(1 0 0 1 -114.527378 -191.13184)" font-size="9.958844" font-family="CMBX10" font-weight="bold"><tspan y="226.4246" x="129.94374 136.06844 136.30745 141.55576 147.9095 154.26325">d&#x00b4;ebut</tspan></text>
<path transform="matrix(1,0,0,-1,-114.527378,-191.13184)" stroke-width=".39785" stroke-linecap="butt" stroke-miterlimit="10" stroke-linejoin="miter" fill="none" stroke="#000000" d="M135.121-400.309V-230.012"/>
<text xml:space="preserve" transform="matrix(1 0 0 1 -114.527378 -191.13184)" font-size="6.971171" font-family="CMBX7" font-weight="bold"><tspan y="238.3751" x="120.850177">2</tspan></text>
<text xml:space="preserve" transform="matrix(1 0 0 1 -114.527378 -191.13184)" font-size="9.958844" font-family="CMTI10" font-style="italic"><tspan y="238.3751" x="145.27997 152.03206 156.61313 162.21 167.29898 170.99372 179.14005 182.44638 187.53536 192.87329 200.51172 203.05123 207.6323 215.28069 220.36966 225.96654 229.01395 237.15033 242.2393 247.57724 255.78333 260.87229 269.01863 271.55815 280.21238 284.79344 288.9861 292.0335 295.10087 297.64039 305.79667 310.88563 313.933 317.99623 322.5972 327.68617 333.28303 336.3304 340.91148 343.451 348.03205 355.68043 360.26148 365.35044 370.6884 378.4563 380.99583 389.14216 393.97218 394.23109 398.81214 403.9011 406.4406 411.52958 415.61268 420.19374 428.3301 432.91117 438.50804">Rendretouslesanimauxdelagrilledisponiblespourled&#x00b4;eplacement</tspan></text>
<text xml:space="preserve" transform="matrix(1 0 0 1 -114.527378 -191.13184)" font-size="9.958844" font-family="CMR10"><tspan y="238.3751" x="442.77043">;</tspan></text>
<text xml:space="preserve" transform="matrix(1 0 0 1 -114.527378 -191.13184)" font-size="6.971171" font-family="CMBX7" font-weight="bold"><tspan y="250.32559" x="120.850177">3</tspan></text>
<text xml:space="preserve" transform="matrix(1 0 0 1 -114.527378 -191.13184)" font-size="9.958844" font-family="CMTI10" font-style="italic"><tspan y="250.32559" x="145.27997 152.90845 157.48952 160.79586 165.37693 170.9738 174.02121 181.80902 184.34853 188.9296 196.55806 201.64704 204.69445 212.83083 217.4119 223.00878 227.10186 230.14926 235.23824 240.83512 248.4835 253.57248 261.7188 264.25834 272.91258 277.49363 281.6863 284.7337 287.80107 290.34059 298.4869 302.5501 308.14698 313.23594 321.3723 325.95338 329.66804 337.81437 342.90333 351.04966 353.58918 356.63658 361.21763 366.81449 371.39555 379.0439 383.62498 390.4866 395.57557 403.7219 407.79505 412.884 415.42353 420.51249 426.10935 431.7062 436.28727 440.38035">Obtenirlesdimensionsdelagrille(nombredelignesetdecolonnes)</tspan></text>
<text xml:space="preserve" transform="matrix(1 0 0 1 -114.527378 -191.13184)" font-size="9.958844" font-family="CMR10"><tspan y="250.32559" x="444.812">;</tspan></text>
<text xml:space="preserve" transform="matrix(1 0 0 1 -114.527378 -191.13184)" font-size="6.971171" font-family="CMBX7" font-weight="bold"><tspan y="262.2771" x="120.850177">4</tspan></text>
<text xml:space="preserve" transform="matrix(1 0 0 1 -114.527378 -191.13184)" font-size="9.958844" font-family="CMBX10" font-weight="bold"><tspan y="262.2771" x="145.27997 151.96236 157.68869 164.04244">pour</tspan></text>
<text xml:space="preserve" transform="matrix(1 0 0 1 -114.527378 -191.13184)" font-size="9.958844" font-family="CMTI10" font-style="italic"><tspan y="262.2771" x="172.08919 174.6287 177.6761 182.25717 187.85405 196.01035 201.09932 209.24565 217.88994 217.88994 226.55414 232.15102 237.23999 245.37638 249.95745 253.65218 261.79853 266.88749 275.02384 277.56336 280.61076 285.1918 290.78868 295.36973">lignede0`anombredelignes</tspan></text>
<text xml:space="preserve" transform="matrix(1 0 0 1 -114.527378 -191.13184)" font-size="9.958844" font-family="CMBX10" font-weight="bold"><tspan y="262.2771" x="303.60569 307.10124 312.6682 315.8451 320.55564">faire</tspan></text>
<path transform="matrix(1,0,0,-1,-114.527378,-191.13184)" stroke-width=".39785" stroke-linecap="butt" stroke-miterlimit="10" stroke-linejoin="miter" fill="none" stroke="#000000" d="M150.461-387.359V-265.863"/>
<text xml:space="preserve" transform="matrix(1 0 0 1 -114.527378 -191.13184)" font-size="6.971171" font-family="CMBX7" font-weight="bold"><tspan y="274.22758" x="121.24902">5</tspan></text>
<text xml:space="preserve" transform="matrix(1 0 0 1 -114.527378 -191.13184)" font-size="9.958844" font-family="CMBX10" font-weight="bold"><tspan y="274.22758" x="160.61717 167.29956 173.0259 179.37964">pour</tspan></text>
<text xml:space="preserve" transform="matrix(1 0 0 1 -114.527378 -191.13184)" font-size="9.958844" font-family="CMTI10" font-style="italic"><tspan y="274.22758" x="187.42639 191.49956 196.58853 199.12804 204.21701 209.81389 215.41077 223.56707 228.65604 236.79242 245.44666 245.44666 254.10089 259.69776 264.7867 272.9231 277.50416 281.20887 289.3552 294.44416 302.5805 306.65367 311.7426 314.28215 319.3711 324.96797 330.56483 335.14588">colonnede0`anombredecolonnes</tspan></text>
<text xml:space="preserve" transform="matrix(1 0 0 1 -114.527378 -191.13184)" font-size="9.958844" font-family="CMBX10" font-weight="bold"><tspan y="274.22758" x="343.3719 346.86744 352.43443 355.6113 360.32185">faire</tspan></text>
<path transform="matrix(1,0,0,-1,-114.527378,-191.13184)" stroke-width=".39785" stroke-linecap="butt" stroke-miterlimit="10" stroke-linejoin="miter" fill="none" stroke="#000000" d="M165.797-374.414V-277.812"/>
<text xml:space="preserve" transform="matrix(1 0 0 1 -114.527378 -191.13184)" font-size="6.971171" font-family="CMBX7" font-weight="bold"><tspan y="286.17808" x="121.64687">6</tspan></text>
<text xml:space="preserve" transform="matrix(1 0 0 1 -114.527378 -191.13184)" font-size="9.958844" font-family="CMBX10" font-weight="bold"><tspan y="286.17808" x="175.9534 180.46475">si</tspan></text>
<text xml:space="preserve" transform="matrix(1 0 0 1 -114.527378 -191.13184)" font-size="9.958844" font-family="CMTI10" font-style="italic"><tspan y="286.17808" x="186.96787 189.50737 198.17157 202.24474 207.33371 211.39691 219.54325 223.60645 226.14595 229.19336 233.77443 239.40119 243.98226 250.59493 254.66809 259.75706 262.29658 267.38554 272.9824 278.57926 283.1603 290.8087 295.89765 304.034 306.57353 315.2377 319.81877 324.01145 327.05885 330.1262 332.6657 340.822 345.40306 348.45045 353.0315 357.0947 363.9862 368.5573 373.64628 381.2847 385.86576 388.91316 394.0021">lacase(ligne,colonne)delagrillen&#x2019;estpasvide</tspan></text>
<text xml:space="preserve" transform="matrix(1 0 0 1 -114.527378 -191.13184)" font-size="9.958844" font-family="CMBX10" font-weight="bold"><tspan y="286.17808" x="402.65635 408.22334 411.4002 417.12657 421.8371">alors</tspan></text>
<path transform="matrix(1,0,0,-1,-114.527378,-191.13184)" stroke-width=".39785" stroke-linecap="butt" stroke-miterlimit="10" stroke-linejoin="miter" fill="none" stroke="#000000" d="M181.133-361.465V-289.762"/>
<text xml:space="preserve" transform="matrix(1 0 0 1 -114.527378 -191.13184)" font-size="6.971171" font-family="CMBX7" font-weight="bold"><tspan y="298.12858" x="122.04572">7</tspan></text>
<text xml:space="preserve" transform="matrix(1 0 0 1 -114.527378 -191.13184)" font-size="9.958844" font-family="CMTI10" font-style="italic"><tspan y="298.12858" x="191.2906 198.29167 198.55062 203.13169 207.71276 213.05069 217.89069 218.14963 222.7307 226.42543 231.0065 238.76444 241.30394 244.35135 249.44033 255.0372 258.0846 266.25086 271.3398 277.45457 282.54353 286.47727 286.74617 291.3272 295.3904 299.97148 305.56834 312.4499 317.53886 322.6278 328.22468 335.85316 338.39268 347.05686 351.13 356.21897 360.28218 368.43846 372.50166 375.04118 378.08857 382.66963 388.26649 392.84754 399.49009 403.55329 408.64225 411.18177 416.27073 421.86759 427.46446 432.0455 439.69389 444.78285 452.92918 455.4687 464.13288 468.71394 472.90663 475.954 479.02137 481.56089">R&#x00b4;ecup&#x00b4;ererl&#x2019;animalpr&#x00b4;esentdanslacase(ligne,colonne)delagrille</tspan></text>
<text xml:space="preserve" transform="matrix(1 0 0 1 -114.527378 -191.13184)" font-size="9.958844" font-family="CMR10"><tspan y="298.12858" x="486.88887">;</tspan></text>
<text xml:space="preserve" transform="matrix(1 0 0 1 -114.527378 -191.13184)" font-size="6.971171" font-family="CMBX7" font-weight="bold"><tspan y="310.07908" x="122.04572">8</tspan></text>
<text xml:space="preserve" transform="matrix(1 0 0 1 -114.527378 -191.13184)" font-size="9.958844" font-family="CMBX10" font-weight="bold"><tspan y="310.07908" x="191.2906 195.80196">si</tspan></text>
<text xml:space="preserve" transform="matrix(1 0 0 1 -114.527378 -191.13184)" font-size="9.958844" font-family="CMTI10" font-style="italic"><tspan y="310.07908" x="202.30507 204.84458 213.50878 217.58194 222.67092 226.73412 234.88045 238.94365 241.48316 244.53057 249.11164 254.70851 259.28959 265.93214 270.00529 275.09425 277.63377 282.72273 288.31959 293.91645 298.4975 306.14588 311.23484 319.38117 321.9207 330.57493 335.15599 339.34867 342.39607 345.4634 348.00294 356.1592 360.23237 365.32133 370.91819 374.22453 377.2719 381.85298 387.44984 394.3314 399.66935 405.2662 413.41255 418.5015 422.19624 427.2852 430.33259">lacase(ligne,colonne)delagrillecontientuneproie</tspan></text>
<text xml:space="preserve" transform="matrix(1 0 0 1 -114.527378 -191.13184)" font-size="9.958844" font-family="CMBX10" font-weight="bold"><tspan y="310.07908" x="438.99678 444.56376 447.74064 453.46699 458.17753">alors</tspan></text>
<path transform="matrix(1,0,0,-1,-114.527378,-191.13184)" stroke-width=".39785" stroke-linecap="butt" stroke-miterlimit="10" stroke-linejoin="miter" fill="none" stroke="#000000" d="M196.469-325.613V-313.664"/>
<text xml:space="preserve" transform="matrix(1 0 0 1 -114.527378 -191.13184)" font-size="6.971171" font-family="CMBX7" font-weight="bold"><tspan y="322.02955" x="122.44357">9</tspan></text>
<text xml:space="preserve" transform="matrix(1 0 0 1 -114.527378 -191.13184)" font-size="9.958844" font-family="CMTI10" font-style="italic"><tspan y="322.02955" x="206.62683 213.37892 217.74089 217.99983 222.5809 227.16197 232.49991 235.80625 240.38732 248.16518 250.70468 255.28575 262.66526 262.92417 267.50523 270.81156 275.9005 280.48158 285.06263 292.70106 297.79 306.7032 311.28425 316.1143 320.69535 323.23487 331.3812 336.47016 344.6165 349.19755 352.24494 360.4012 364.98228 370.07124 375.40919 383.1771 388.51506 394.1119 402.25825 407.3472 411.04194 416.1309 419.17829 427.33457 427.33457 435.9888 438.52833 447.18257 451.7636 456.85258 460.91578 463.96318 467.2695 470.3169 475.40586 484.59788 488.66108 491.2006 494.248 498.82905 504.4259 509.00697 515.64956 519.7227 524.8117 527.3512 532.4402 538.03707 543.6339 548.21499 555.8534 560.9424 565.52346 569.5966 577.7429 580.2824 583.32986 588.4188 594.0157 597.0631 605.2293 610.3183 616.433 620.36679 620.6157 625.1968 629.77786 635.1158 639.96578 640.2147 644.7958 648.74948 648.9984">Ex&#x00b4;ecuterles&#x00b4;etapesducycledeviepouruneproie`alaposition(ligne,colonne)avecl&#x2019;animalr&#x00b4;ecup&#x00b4;er&#x00b4;e</tspan></text>
<text xml:space="preserve" transform="matrix(1 0 0 1 -114.527378 -191.13184)" font-size="9.958844" font-family="CMR10"><tspan y="322.02955" x="654.33639">;</tspan></text>
<text xml:space="preserve" transform="matrix(1 0 0 1 -114.527378 -191.13184)" font-size="6.971171" font-family="CMBX7" font-weight="bold"><tspan y="333.98106" x="117.533428 122.04377">10</tspan></text>
<text xml:space="preserve" transform="matrix(1 0 0 1 -114.527378 -191.13184)" font-size="9.958844" font-family="CMBX10" font-weight="bold"><tspan y="333.98106" x="191.2906 195.80196 198.97882 205.33257 211.0589">sinon</tspan></text>
<path transform="matrix(1,0,0,-1,-114.527378,-191.13184)" stroke-width=".39785" stroke-linecap="butt" stroke-miterlimit="10" stroke-linejoin="miter" fill="none" stroke="#000000" d="M196.469-349.516V-337.566"/>
<text xml:space="preserve" transform="matrix(1 0 0 1 -114.527378 -191.13184)" font-size="6.971171" font-family="CMBX7" font-weight="bold"><tspan y="345.93156" x="117.932277 122.44262">11</tspan></text>
<text xml:space="preserve" transform="matrix(1 0 0 1 -114.527378 -191.13184)" font-size="9.958844" font-family="CMTI10" font-style="italic"><tspan y="345.93156" x="206.62683 213.37892 217.74089 217.99983 222.5809 227.16197 232.49991 235.80625 240.38732 248.16518 250.70468 255.28575 262.66526 262.92417 267.50523 270.81156 275.9005 280.48158 285.06263 292.70106 297.79 306.7032 311.28425 316.1143 320.69535 323.23487 331.3812 336.47016 344.6165 349.19755 352.24494 360.4012 364.98228 370.07124 375.40919 383.1771 388.51506 397.6772 402.76615 406.71983 406.96879 411.54985 416.6388 421.72776 425.0341 429.61515 434.9531 442.73097 442.73097 451.3852 453.9247 462.57896 467.16 472.24897 476.31217 479.35957 482.6659 485.7133 490.80226 499.99427 504.05747 506.597 509.64439 514.22549 519.8223 524.4034 531.04598 535.11917 540.2081 542.7476 547.8366 553.4335 559.03036 563.6114 571.2498 576.3388 580.91989 584.99307 593.13937 595.67886 598.72628 603.81527 609.4121 612.45956 620.62576 625.7147 631.8294 635.7632 636.02218 640.6032 645.18429 650.5222 655.36227 655.6112 660.19229 664.14596 664.3949">Ex&#x00b4;ecuterles&#x00b4;etapesducycledeviepourunpr&#x00b4;edateur`alaposition(ligne,colonne)avecl&#x2019;animalr&#x00b4;ecup&#x00b4;er&#x00b4;e</tspan></text>
<text xml:space="preserve" transform="matrix(1 0 0 1 -114.527378 -191.13184)" font-size="9.958844" font-family="CMR10"><tspan y="345.93156" x="669.73287">;</tspan></text>
<text xml:space="preserve" transform="matrix(1 0 0 1 -114.527378 -191.13184)" font-size="6.971171" font-family="CMBX7" font-weight="bold"><tspan y="357.88203" x="117.533428 122.04377">12</tspan></text>
<text xml:space="preserve" transform="matrix(1 0 0 1 -114.527378 -191.13184)" font-size="9.958844" font-family="CMBX10" font-weight="bold"><tspan y="357.88203" x="191.2906">&#xfb01;</tspan></text>
<text xml:space="preserve" transform="matrix(1 0 0 1 -114.527378 -191.13184)" font-size="9.958844" font-family="CMBX10" font-weight="bold"><tspan y="357.88203" x="197.64435">n</tspan></text>
<text xml:space="preserve" transform="matrix(1 0 0 1 -114.527378 -191.13184)" font-size="6.971171" font-family="CMBX7" font-weight="bold"><tspan y="370.82817" x="117.135578 121.64592">13</tspan></text>
<text xml:space="preserve" transform="matrix(1 0 0 1 -114.527378 -191.13184)" font-size="9.958844" font-family="CMBX10" font-weight="bold"><tspan y="370.82817" x="175.9534">&#xfb01;</tspan></text>
<text xml:space="preserve" transform="matrix(1 0 0 1 -114.527378 -191.13184)" font-size="9.958844" font-family="CMBX10" font-weight="bold"><tspan y="370.82817" x="182.30715">n</tspan></text>
<text xml:space="preserve" transform="matrix(1 0 0 1 -114.527378 -191.13184)" font-size="6.971171" font-family="CMBX7" font-weight="bold"><tspan y="383.77528" x="116.736728 121.24707">14</tspan></text>
<text xml:space="preserve" transform="matrix(1 0 0 1 -114.527378 -191.13184)" font-size="9.958844" font-family="CMBX10" font-weight="bold"><tspan y="383.77528" x="160.61717">&#xfb01;</tspan></text>
<text xml:space="preserve" transform="matrix(1 0 0 1 -114.527378 -191.13184)" font-size="9.958844" font-family="CMBX10" font-weight="bold"><tspan y="383.77528" x="166.97092">n</tspan></text>
<text xml:space="preserve" transform="matrix(1 0 0 1 -114.527378 -191.13184)" font-size="6.971171" font-family="CMBX7" font-weight="bold"><tspan y="396.72138" x="116.338878 120.84922">15</tspan></text>
<text xml:space="preserve" transform="matrix(1 0 0 1 -114.527378 -191.13184)" font-size="9.958844" font-family="CMBX10" font-weight="bold"><tspan y="396.72138" x="145.27997">&#xfb01;</tspan></text>
<text xml:space="preserve" transform="matrix(1 0 0 1 -114.527378 -191.13184)" font-size="9.958844" font-family="CMBX10" font-weight="bold"><tspan y="396.72138" x="151.63372">n</tspan></text>
<text xml:space="preserve" transform="matrix(1 0 0 1 -114.527378 -191.13184)" font-size="6.971171" font-family="CMBX7" font-weight="bold"><tspan y="409.6685" x="115.940029 120.45037">16</tspan></text>
<text xml:space="preserve" transform="matrix(1 0 0 1 -114.527378 -191.13184)" font-size="9.958844" font-family="CMBX10" font-weight="bold"><tspan y="409.6685" x="129.94374">&#xfb01;</tspan></text>
<text xml:space="preserve" transform="matrix(1 0 0 1 -114.527378 -191.13184)" font-size="9.958844" font-family="CMBX10" font-weight="bold"><tspan y="409.6685" x="136.29749">n</tspan></text>
<path transform="matrix(1,0,0,-1,-114.527378,-191.13184)" stroke-width=".7967" stroke-linecap="butt" stroke-miterlimit="10" stroke-linejoin="miter" fill="none" stroke="#000000" d="M115.004-415.645H726.773"/>
</g>
</svg>
