<svg xmlns="http://www.w3.org/2000/svg" xmlns:xlink="http://www.w3.org/1999/xlink" version="1.1" width="612.0768pt" height="319.83955pt" viewBox="0 0 612.0768 319.83955" style="background-color:white">
<g>
<path transform="matrix(1,0,0,-1,-114.527378,-191.13184)" stroke-width=".7967" stroke-linecap="butt" stroke-miterlimit="10" stroke-linejoin="miter" fill="none" stroke="#000000" d="M115.004-191.535H726.773"/>
<text xml:space="preserve" transform="matrix(1 0 0 1 -114.527378 -191.13184)" font-size="9.958844" font-family="CMBX10" font-weight="bold"><tspan y="200.84125" x="122.47456 131.1288 134.30567 140.032 145.75833 150.46887 153.64574 158.09734 164.48096 174.02153 183.08408 192.63462">Algorithme2:</tspan></text>
<text xml:space="preserve" transform="matrix(1 0 0 1 -114.527378 -191.13184)" font-size="9.958844" font-family="CMR10"><tspan y="200.84125" x="199.13773 206.46744 210.88916 219.18488 224.71204 227.47064 230.25913 234.1829 238.10669 243.0861 248.06552 255.81349 261.34065 269.09858 271.85719 280.16288 285.1423 289.03623 291.79484 294.55345 297.34193 305.07994 309.79048 314.7699 319.19163 326.9396 332.46678 336.8885 344.1485 349.67567 353.56959 358.549 361.30763 365.75923 372.9993 377.42103 384.62129 390.14845 394.57017 401.83018 407.35734 410.98237 411.26124 415.68296 421.2101 426.18955 430.0536 434.5052 440.03236 443.92628">Remplissagedelagrilleavecdesproiesetdespr&#x00b4;edateurs</tspan></text>
<path transform="matrix(1,0,0,-1,-114.527378,-191.13184)" stroke-width=".7967" stroke-linecap="butt" stroke-miterlimit="10" stroke-linejoin="miter" fill="none" stroke="#000000" d="M115.004-205.168H726.773"/>
<text xml:space="preserve" transform="matrix(1 0 0 1 -114.527378 -191.13184)" font-size="9.958844" font-family="CMBX10" font-weight="bold"><tspan y="214.47412" x="129.94374 137.46266 143.51764 147.96924 152.44077 152.67978 157.92809 163.17639 171.51195">Entr&#x00b4;ees:</tspan></text>
<text xml:space="preserve" transform="matrix(1 0 0 1 -114.527378 -191.13184)" font-size="9.958844" font-family="CMR10"><tspan y="214.47412" x="178.01506 182.99448 186.88838 189.64699 192.4056 195.19408 199.6158 205.70066 211.51662 216.49604 222.0232 225.9171 230.33882 234.76055 240.03873 243.90276 248.88217 253.86159">grille,pourcentage</tspan></text>
<path transform="matrix(1,0,0,-1,-114.527378,-191.13184)" stroke-width=".39785" stroke-linecap="butt" stroke-miterlimit="10" stroke-linejoin="miter" fill="none" stroke="#000000" d="M258.895-214.273H261.883"/>
<text xml:space="preserve" transform="matrix(1 0 0 1 -114.527378 -191.13184)" font-size="9.958844" font-family="CMR10"><tspan y="214.47412" x="261.882 267.40916 271.30308 276.2825 279.0411 283.46284 289.5676 295.38359 300.363 305.89018 309.7841 314.2058 318.62754 323.90574 327.76979 332.7492 337.72865">proie,pourcentage</tspan></text>
<path transform="matrix(1,0,0,-1,-114.527378,-191.13184)" stroke-width=".39785" stroke-linecap="butt" stroke-miterlimit="10" stroke-linejoin="miter" fill="none" stroke="#000000" d="M342.758-214.273H345.746"/>
<text xml:space="preserve" transform="matrix(1 0 0 1 -114.527378 -191.13184)" font-size="9.958844" font-family="CMR10"><tspan y="214.47412" x="345.74736 351.2745 354.89955 355.1784 359.60014 365.1273 370.10673 373.97077 378.42237 383.94953 387.84346">pr&#x00b4;edateurs</tspan></text>
<text xml:space="preserve" transform="matrix(1 0 0 1 -114.527378 -191.13184)" font-size="9.958844" font-family="CMBX10" font-weight="bold"><tspan y="226.42462" x="129.94373 136.29747 142.0238 146.73435 151.18595 154.36281 159.61112 167.96659">Sorties:</tspan></text>
<text xml:space="preserve" transform="matrix(1 0 0 1 -114.527378 -191.13184)" font-size="9.958844" font-family="CMR10"><tspan y="226.42462" x="174.4697 182.27744 186.17134 188.92995 191.71843 194.47704 202.225 206.11891 210.54064 218.83635 224.36351 227.152 229.9106 237.66854 242.3691 247.34851 251.77024 259.52818 265.05534 269.47706 276.7271 282.25428 286.1482 291.12763 293.88624 298.33784 305.5779 309.99964 317.1999 322.72706 327.14878 334.40879 339.93595 343.56098 343.83985 348.26158 353.78874 358.76817 362.6322 367.05393 372.61097 376.50489">Grilleremplieavecdesproiesetdespr&#x00b4;edateurs</tspan></text>
<text xml:space="preserve" transform="matrix(1 0 0 1 -114.527378 -191.13184)" font-size="6.971171" font-family="CMBX7" font-weight="bold"><tspan y="238.3751" x="120.452327">1</tspan></text>
<text xml:space="preserve" transform="matrix(1 0 0 1 -114.527378 -191.13184)" font-size="9.958844" font-family="CMBX10" font-weight="bold"><tspan y="238.3751" x="129.94374 136.06844 136.30745 141.55576 147.9095 154.26325">d&#x00b4;ebut</tspan></text>
<path transform="matrix(1,0,0,-1,-114.527378,-191.13184)" stroke-width=".39785" stroke-linecap="butt" stroke-miterlimit="10" stroke-linejoin="miter" fill="none" stroke="#000000" d="M135.121-494.918V-241.961"/>
<text xml:space="preserve" transform="matrix(1 0 0 1 -114.527378 -191.13184)" font-size="6.971171" font-family="CMBX7" font-weight="bold"><tspan y="250.32559" x="120.850177">2</tspan></text>
<text xml:space="preserve" transform="matrix(1 0 0 1 -114.527378 -191.13184)" font-size="9.958844" font-family="CMTI10" font-style="italic"><tspan y="250.32559" x="145.27997 152.40055 157.48952 160.02902 164.61009 169.94803 172.51741 177.09848 184.85642 187.39592 191.97699 199.61542 204.70439 207.7518 215.88819 220.46926 226.06613 230.15921 233.20662 238.2956 243.89247 251.5309 256.61988 264.77616 267.31568 275.9699 280.55097 284.74366 287.79106 290.8584 293.39793 301.54426 305.60746 311.2043 316.29328 324.42967 329.0107 332.71543 340.86177 345.9507 354.107 356.6465 359.6939 364.27497 369.87184 374.45289 382.0913 386.67237 393.54399 397.61714 402.7061 405.2456 410.33457 415.93144 421.5283 426.10935 430.17256">Calculerlesdimensionsdelagrille(nombredelignesetcolonnes)</tspan></text>
<text xml:space="preserve" transform="matrix(1 0 0 1 -114.527378 -191.13184)" font-size="9.958844" font-family="CMR10"><tspan y="250.32559" x="434.6341">;</tspan></text>
<text xml:space="preserve" transform="matrix(1 0 0 1 -114.527378 -191.13184)" font-size="6.971171" font-family="CMBX7" font-weight="bold"><tspan y="262.2771" x="120.850177">3</tspan></text>
<text xml:space="preserve" transform="matrix(1 0 0 1 -114.527378 -191.13184)" font-size="9.958844" font-family="CMTI10" font-style="italic"><tspan y="262.2771" x="145.27997 152.40055 157.48952 160.02902 164.61009 169.94803 172.51741 177.09848 184.85642 187.39592 195.54225 201.13913 206.2281 214.36449 218.94556 222.65026 230.79659 234.10292 239.1919 242.49823 247.5872 253.70194 258.7909 266.93724 271.00044 276.0894 280.1526 284.73365 292.38203 297.47099 302.55995 308.1568 315.79524 318.33476 326.99894 331.58 335.77268 338.82008 341.88743 344.42695">Calculerlenombretotaldecasesdanslagrille</tspan></text>
<text xml:space="preserve" transform="matrix(1 0 0 1 -114.527378 -191.13184)" font-size="9.958844" font-family="CMR10"><tspan y="262.2771" x="349.7549">;</tspan></text>
<text xml:space="preserve" transform="matrix(1 0 0 1 -114.527378 -191.13184)" font-size="6.971171" font-family="CMBX7" font-weight="bold"><tspan y="274.22758" x="120.850177">4</tspan></text>
<text xml:space="preserve" transform="matrix(1 0 0 1 -114.527378 -191.13184)" font-size="9.958844" font-family="CMTI10" font-style="italic"><tspan y="274.22758" x="145.27997 152.53997 152.7989 157.37998 160.68631 165.26738 169.46006 177.59644 180.64385 186.2706 190.85167 198.6096 201.14911 209.29544 214.89232 219.9813 228.11768 232.69875 236.40345 244.54978 249.63875 257.7851 262.87406 266.5688 271.65776 274.70515 279.2862 286.91468 291.49574 298.3773 303.46626 307.40998 307.65895 312.24 317.32896 322.4179 325.72425 330.3053 335.64326 339.83595 347.4943 352.07536 361.2375 364.28489 369.37385 374.9707 379.55177 382.8581 385.9055 390.99446 400.17649 405.26545 409.8465 417.48493 422.06599 427.15495 432.4929 436.18763 440.26078 444.84184 450.4387 453.74504 458.83399 463.41505 467.9961 475.64448 478.69187 483.78083 489.11878 493.31147 498.90834 501.95573">D&#x00b4;eterminerlenombredeproiesetpr&#x00b4;edateursenfonctiondespourcentagesfournis</tspan></text>
<text xml:space="preserve" transform="matrix(1 0 0 1 -114.527378 -191.13184)" font-size="9.958844" font-family="CMR10"><tspan y="274.22758" x="506.86543">;</tspan></text>
<text xml:space="preserve" transform="matrix(1 0 0 1 -114.527378 -191.13184)" font-size="6.971171" font-family="CMBX7" font-weight="bold"><tspan y="286.17808" x="120.850177">5</tspan></text>
<text xml:space="preserve" transform="matrix(1 0 0 1 -114.527378 -191.13184)" font-size="9.958844" font-family="CMTI10" font-style="italic"><tspan y="286.17808" x="145.27997 152.40055 156.34424 156.60318 161.18425 165.76532 173.53322 178.87116 184.46804 192.61437 195.15387 198.20128 202.26448 205.57082 213.73708 218.82605 226.98235 230.28868 235.37766 240.71559 244.02193 248.603 256.25138 258.7909 263.37196 271.00044 275.58149 280.67045 284.73365 287.78105 291.08738 294.16465 299.2536 304.85047 312.4889 317.06996 322.1589 326.2221 330.2853 333.36259 337.94364 340.48316 345.0642 352.70265 357.7916 362.88056 368.47743 376.11585 378.65538 387.3096 391.89067 396.08335 399.13075 402.1981 404.7376">Cr&#x00b4;eerunelistedetouteslespositionspossiblesdanslagrille</tspan></text>
<text xml:space="preserve" transform="matrix(1 0 0 1 -114.527378 -191.13184)" font-size="9.958844" font-family="CMR10"><tspan y="286.17808" x="410.07554">;</tspan></text>
<text xml:space="preserve" transform="matrix(1 0 0 1 -114.527378 -191.13184)" font-size="6.971171" font-family="CMBX7" font-weight="bold"><tspan y="298.12858" x="120.850177">6</tspan></text>
<text xml:space="preserve" transform="matrix(1 0 0 1 -114.527378 -191.13184)" font-size="9.958844" font-family="CMTI10" font-style="italic"><tspan y="298.12858" x="145.27997 153.95412 154.21306 158.79413 161.33364 166.4226 172.01949 176.60056 181.18163 188.94953 194.0385 196.32903 196.578 201.15908 206.24805 209.55438 214.64336 217.69077 221.39546 225.97653 234.11292 238.69399 244.29087 251.17243 253.71193 262.37614 264.91566 267.96305 272.02626 275.33259 283.4988 288.58778 293.16883 300.7973 305.37837 310.46733 314.53053 317.5779 320.88426 323.96153 329.05049 334.64735">M&#x00b4;elangeral&#x00b4;eatoirementlalistedespositions</tspan></text>
<text xml:space="preserve" transform="matrix(1 0 0 1 -114.527378 -191.13184)" font-size="9.958844" font-family="CMR10"><tspan y="298.12858" x="339.53715">;</tspan></text>
<text xml:space="preserve" transform="matrix(1 0 0 1 -114.527378 -191.13184)" font-size="6.971171" font-family="CMBX7" font-weight="bold"><tspan y="310.07908" x="120.850177">7</tspan></text>
<text xml:space="preserve" transform="matrix(1 0 0 1 -114.527378 -191.13184)" font-size="9.958844" font-family="CMBX10" font-weight="bold"><tspan y="310.07908" x="145.27997 151.96236 157.68869 164.04244">pour</tspan></text>
<text xml:space="preserve" transform="matrix(1 0 0 1 -114.527378 -191.13184)" font-size="9.958844" font-family="CMTI10" font-style="italic"><tspan y="310.07908" x="172.08919 176.67026 181.75923 186.8482 191.42928 196.76721 204.92351 210.01248 213.69725 218.78623 221.83364">chaqueproie</tspan></text>
<text xml:space="preserve" transform="matrix(1 0 0 1 -114.527378 -191.13184)" font-size="9.958844" font-family="CMBX10" font-weight="bold"><tspan y="310.07908" x="230.48787 233.98343 239.55043 242.7273 247.43784">faire</tspan></text>
<path transform="matrix(1,0,0,-1,-114.527378,-191.13184)" stroke-width=".39785" stroke-linecap="butt" stroke-miterlimit="10" stroke-linejoin="miter" fill="none" stroke="#000000" d="M150.461-385.367V-313.664"/>
<text xml:space="preserve" transform="matrix(1 0 0 1 -114.527378 -191.13184)" font-size="6.971171" font-family="CMBX7" font-weight="bold"><tspan y="322.02955" x="121.24902">8</tspan></text>
<text xml:space="preserve" transform="matrix(1 0 0 1 -114.527378 -191.13184)" font-size="9.958844" font-family="CMTI10" font-style="italic"><tspan y="322.02955" x="160.61717 165.95513 166.21407 170.79514 173.33464 177.41777 181.99884 185.30518 188.35259 193.44156 199.03844 204.63532 209.21639 216.99425 221.57532 228.43697 232.1317 236.71277 240.0191 243.06652 246.77121 251.35228 259.11024 264.44819 270.04505 278.19139 282.77244 287.8614 291.9246 294.972 298.27833 301.3556 306.44456 315.6067 320.69566 322.99617 323.24513 327.82618 332.91514 336.22148 341.31044 344.35783 348.06254 356.20887 361.29783 369.43418 371.9737 380.62794 383.16746 386.21485 390.30793 393.61427">S&#x00b4;electionneretretirerunepositional&#x00b4;eatoiredelaliste</tspan></text>
<text xml:space="preserve" transform="matrix(1 0 0 1 -114.527378 -191.13184)" font-size="9.958844" font-family="CMR10"><tspan y="322.02955" x="398.94224">;</tspan></text>
<text xml:space="preserve" transform="matrix(1 0 0 1 -114.527378 -191.13184)" font-size="6.971171" font-family="CMBX7" font-weight="bold"><tspan y="333.98106" x="121.24902">9</tspan></text>
<text xml:space="preserve" transform="matrix(1 0 0 1 -114.527378 -191.13184)" font-size="9.958844" font-family="CMTI10" font-style="italic"><tspan y="333.98106" x="160.61717 168.06638 168.32532 172.90639 178.24434 178.50328 183.08435 186.77909 191.36016 199.10814 204.19712 206.4976 206.74658 211.32765 216.41663 219.72296 224.81194 227.85935 231.56404 236.14511 244.2815 248.86257 254.45944 261.341 266.67897 275.85105 275.85105 280.94 285.52107 293.6574 298.23847 303.32743 308.66539 316.44325 318.98277 327.64695 332.7359 336.4207 341.50965 344.55705">G&#x00b4;en&#x00b4;ereral&#x00b4;eatoirementun&#x02c6;agepourlaproie</tspan></text>
<text xml:space="preserve" transform="matrix(1 0 0 1 -114.527378 -191.13184)" font-size="9.958844" font-family="CMR10"><tspan y="333.98106" x="349.89497">;</tspan></text>
<text xml:space="preserve" transform="matrix(1 0 0 1 -114.527378 -191.13184)" font-size="6.971171" font-family="CMBX7" font-weight="bold"><tspan y="345.93156" x="116.736728 121.24707">10</tspan></text>
<text xml:space="preserve" transform="matrix(1 0 0 1 -114.527378 -191.13184)" font-size="9.958844" font-family="CMTI10" font-style="italic"><tspan y="345.93156" x="160.61717 168.06638 168.32532 172.90639 178.24434 178.50328 183.08435 186.77909 191.36016 199.10814 204.19712 206.4976 206.74658 211.32765 216.41663 219.72296 224.81194 227.85935 231.56404 236.14511 244.2815 248.86257 254.45944 261.341 266.42997 271.01103 278.64945 281.69685 286.7858 292.12376 296.31645 303.9648 309.05378 317.2001 321.78117 326.3622 330.4254 333.73176 338.8207 342.12705 345.17445 350.29328 355.89015 362.5028 366.566 371.14707 376.48503 379.0544 383.63548 391.77186 396.3529 401.94978 408.83134 412.89454 419.5072 422.04673 425.09413 425.114 430.20298 434.78404 442.93037 447.5114 451.57463 458.45619 462.51939 467.85734 472.70729 472.9662 477.54725 481.73994 484.78733 489.36839 494.70634 502.4842 502.4842 511.13844 518.53787">G&#x00b4;en&#x00b4;ereral&#x00b4;eatoirementdesjoursdegestation,seulementsil&#x2019;&#x02c6;ageestsup&#x00b4;erieur`aNB</tspan></text>
<path transform="matrix(1,0,0,-1,-114.527378,-191.13184)" stroke-width=".39785" stroke-linecap="butt" stroke-miterlimit="10" stroke-linejoin="miter" fill="none" stroke="#000000" d="M526.16-345.73H529.215"/>
<text xml:space="preserve" transform="matrix(1 0 0 1 -114.527378 -191.13184)" font-size="9.958844" font-family="CMTI10" font-style="italic"><tspan y="345.93156" x="529.2142 534.44259 541.7026">JRS</tspan></text>
<path transform="matrix(1,0,0,-1,-114.527378,-191.13184)" stroke-width=".39785" stroke-linecap="butt" stroke-miterlimit="10" stroke-linejoin="miter" fill="none" stroke="#000000" d="M547.918-345.73H550.973"/>
<text xml:space="preserve" transform="matrix(1 0 0 1 -114.527378 -191.13184)" font-size="9.958844" font-family="CMTI10" font-style="italic"><tspan y="345.93156" x="550.97097 557.723 565.12246 572.1235 578.87557 585.3887 592.5092">PUBERTE</tspan></text>
<path transform="matrix(1,0,0,-1,-114.527378,-191.13184)" stroke-width=".39785" stroke-linecap="butt" stroke-miterlimit="10" stroke-linejoin="miter" fill="none" stroke="#000000" d="M599.887-345.73H602.941"/>
<text xml:space="preserve" transform="matrix(1 0 0 1 -114.527378 -191.13184)" font-size="9.958844" font-family="CMTI10" font-style="italic"><tspan y="345.93156" x="602.94137 609.6934 616.7144 624.3429 628.17709">PROIE</tspan></text>
<text xml:space="preserve" transform="matrix(1 0 0 1 -114.527378 -191.13184)" font-size="9.958844" font-family="CMR10"><tspan y="345.93156" x="636.13418">;</tspan></text>
<text xml:space="preserve" transform="matrix(1 0 0 1 -114.527378 -191.13184)" font-size="6.971171" font-family="CMBX7" font-weight="bold"><tspan y="357.88203" x="116.736728 121.24707">11</tspan></text>
<text xml:space="preserve" transform="matrix(1 0 0 1 -114.527378 -191.13184)" font-size="9.958844" font-family="CMTI10" font-style="italic"><tspan y="357.88203" x="160.61717 167.73775 171.68144 171.94039 176.52146 181.10253 188.87042 194.20836 199.80524 207.95157 212.02474 217.11371 221.17691 229.3332 233.40637 238.49535 244.09223 247.39856 251.97963 257.5765 262.66548 268.26234 275.1439 277.6834 286.33766 291.4266 295.12135 300.2103 303.2577 311.41398 316.50294 321.08399 325.15715 333.30348 335.843 340.42405 348.05253 352.63359 357.72254 360.26206 364.8431 370.18107 374.37376 382.0321 386.3642 386.61317 391.1942 396.53215 396.79106 401.3721 405.31584 405.57475 410.1558 414.73686">Cr&#x00b4;eerunecasecontenantlaproieaveclesvaleursg&#x00b4;en&#x00b4;er&#x00b4;ees</tspan></text>
<text xml:space="preserve" transform="matrix(1 0 0 1 -114.527378 -191.13184)" font-size="9.958844" font-family="CMR10"><tspan y="357.88203" x="419.62666">;</tspan></text>
<text xml:space="preserve" transform="matrix(1 0 0 1 -114.527378 -191.13184)" font-size="6.971171" font-family="CMBX7" font-weight="bold"><tspan y="369.83253" x="116.736728 121.24707">12</tspan></text>
<text xml:space="preserve" transform="matrix(1 0 0 1 -114.527378 -191.13184)" font-size="9.958844" font-family="CMTI10" font-style="italic"><tspan y="369.83253" x="160.61717 169.5403 174.12137 177.4277 180.73404 184.43874 192.58507 192.58507 201.22936 204.27677 209.36574 214.70368 222.48154 225.02104 233.68524 238.26631 242.45899 245.5064 248.57372 251.11322 259.2496 264.33857 268.91963 273.00273 281.14906 283.68858 292.3428 296.41596 301.5049 305.5681 313.7244 318.30546 322.24919 322.49815 326.83024 327.0792 331.66026">Mettre`ajourlagrilleaveclacasecr&#x00b4;e&#x00b4;ee</tspan></text>
<text xml:space="preserve" transform="matrix(1 0 0 1 -114.527378 -191.13184)" font-size="9.958844" font-family="CMR10"><tspan y="369.83253" x="336.99818">;</tspan></text>
<text xml:space="preserve" transform="matrix(1 0 0 1 -114.527378 -191.13184)" font-size="6.971171" font-family="CMBX7" font-weight="bold"><tspan y="381.78303" x="116.736728 121.24707">13</tspan></text>
<text xml:space="preserve" transform="matrix(1 0 0 1 -114.527378 -191.13184)" font-size="9.958844" font-family="CMTI10" font-style="italic"><tspan y="381.78303" x="160.61717 164.45133 170.0482 174.62928 178.58293 178.84188 183.42295 191.55933 196.1404 201.73728 205.04361 209.62468 217.40254 219.94205 228.07843 232.1516 237.24057 245.37696 250.46593 253.77227 258.35334 263.69129 271.47914 276.56809 284.71443 289.80339 293.4981 298.58708 301.63447 306.2155 313.844 318.93296 324.0219 329.61878 337.26716 339.80668 348.4609 353.04197 357.23466 360.28205 363.3494 365.88893">Incr&#x00b4;ementerlecompteurdeproiesdanslagrille</tspan></text>
<text xml:space="preserve" transform="matrix(1 0 0 1 -114.527378 -191.13184)" font-size="9.958844" font-family="CMR10"><tspan y="381.78303" x="371.22685">;</tspan></text>
<text xml:space="preserve" transform="matrix(1 0 0 1 -114.527378 -191.13184)" font-size="6.971171" font-family="CMBX7" font-weight="bold"><tspan y="394.73014" x="116.338878 120.84922">14</tspan></text>
<text xml:space="preserve" transform="matrix(1 0 0 1 -114.527378 -191.13184)" font-size="9.958844" font-family="CMBX10" font-weight="bold"><tspan y="394.73014" x="145.27997">&#xfb01;</tspan></text>
<text xml:space="preserve" transform="matrix(1 0 0 1 -114.527378 -191.13184)" font-size="9.958844" font-family="CMBX10" font-weight="bold"><tspan y="394.73014" x="151.63372">n</tspan></text>
<text xml:space="preserve" transform="matrix(1 0 0 1 -114.527378 -191.13184)" font-size="6.971171" font-family="CMBX7" font-weight="bold"><tspan y="406.68064" x="116.338878 120.84922">15</tspan></text>
<text xml:space="preserve" transform="matrix(1 0 0 1 -114.527378 -191.13184)" font-size="9.958844" font-family="CMBX10" font-weight="bold"><tspan y="406.68064" x="145.27997 151.96236 157.68869 164.04244">pour</tspan></text>
<text xml:space="preserve" transform="matrix(1 0 0 1 -114.527378 -191.13184)" font-size="9.958844" font-family="CMTI10" font-style="italic"><tspan y="406.68064" x="172.08919 176.67026 181.75923 186.8482 191.42928 196.76721 204.92351 210.01248 213.94623 214.20517 218.78624 223.87522 228.96419 232.27053 236.8516 242.18953">chaquepr&#x00b4;edateur</tspan></text>
<text xml:space="preserve" transform="matrix(1 0 0 1 -114.527378 -191.13184)" font-size="9.958844" font-family="CMBX10" font-weight="bold"><tspan y="406.68064" x="250.79398 254.28954 259.85655 263.03343 267.74397">faire</tspan></text>
<path transform="matrix(1,0,0,-1,-114.527378,-191.13184)" stroke-width=".39785" stroke-linecap="butt" stroke-miterlimit="10" stroke-linejoin="miter" fill="none" stroke="#000000" d="M150.461-481.969V-410.266"/>
<text xml:space="preserve" transform="matrix(1 0 0 1 -114.527378 -191.13184)" font-size="6.971171" font-family="CMBX7" font-weight="bold"><tspan y="418.63114" x="116.736728 121.24707">16</tspan></text>
<text xml:space="preserve" transform="matrix(1 0 0 1 -114.527378 -191.13184)" font-size="9.958844" font-family="CMTI10" font-style="italic"><tspan y="418.63114" x="160.61717 165.95513 166.21407 170.79514 173.33464 177.41777 181.99884 185.30518 188.35259 193.44156 199.03844 204.63532 209.21639 216.99425 221.57532 228.43697 232.1317 236.71277 240.0191 243.06652 246.77121 251.35228 259.11024 264.44819 270.04505 278.19139 282.77244 287.8614 291.9246 294.972 298.27833 301.3556 306.44456 315.6067 320.69566 322.99617 323.24513 327.82618 332.91514 336.22148 341.31044 344.35783 348.06254 356.20887 361.29783 369.43418 371.9737 380.62794 383.16746 386.21485 390.30793 393.61427">S&#x00b4;electionneretretirerunepositional&#x00b4;eatoiredelaliste</tspan></text>
<text xml:space="preserve" transform="matrix(1 0 0 1 -114.527378 -191.13184)" font-size="9.958844" font-family="CMR10"><tspan y="418.63114" x="398.94224">;</tspan></text>
<text xml:space="preserve" transform="matrix(1 0 0 1 -114.527378 -191.13184)" font-size="6.971171" font-family="CMBX7" font-weight="bold"><tspan y="430.5816" x="116.736728 121.24707">17</tspan></text>
<text xml:space="preserve" transform="matrix(1 0 0 1 -114.527378 -191.13184)" font-size="9.958844" font-family="CMTI10" font-style="italic"><tspan y="430.5816" x="160.61717 168.06638 168.32532 172.90639 178.24434 178.50328 183.08435 186.77909 191.36016 199.10814 204.19712 206.4976 206.74658 211.32765 216.41663 219.72296 224.81194 227.85935 231.56404 236.14511 244.2815 248.86257 254.45944 261.341 266.67897 275.85105 275.85105 280.94 285.52107 293.6574 298.23847 303.32743 308.66539 316.44325 318.98277 327.1291 332.21806 336.16178 336.4207 341.00175 346.0907 351.17967 354.486 359.06706 364.405">G&#x00b4;en&#x00b4;ereral&#x00b4;eatoirementun&#x02c6;agepourlepr&#x00b4;edateur</tspan></text>
<text xml:space="preserve" transform="matrix(1 0 0 1 -114.527378 -191.13184)" font-size="9.958844" font-family="CMR10"><tspan y="430.5816" x="369.6832">;</tspan></text>
<text xml:space="preserve" transform="matrix(1 0 0 1 -114.527378 -191.13184)" font-size="6.971171" font-family="CMBX7" font-weight="bold"><tspan y="442.5321" x="116.736728 121.24707">18</tspan></text>
<text xml:space="preserve" transform="matrix(1 0 0 1 -114.527378 -191.13184)" font-size="9.958844" font-family="CMTI10" font-style="italic"><tspan y="442.5321" x="160.61717 168.06638 168.32532 172.90639 178.24434 178.50328 183.08435 186.77909 191.36016 199.10814 204.19712 206.4976 206.74658 211.32765 216.41663 219.72296 224.81194 227.85935 231.56404 236.14511 244.2815 248.86257 254.45944 261.341 266.42997 271.01103 278.64945 281.69685 286.7858 292.12376 296.31645 303.9648 309.05378 317.2001 321.78117 326.3622 330.4254 333.73176 338.8207 342.12705 345.17445 350.29328 355.89015 362.5028 366.566 371.14707 376.48503 379.0544 383.63548 391.77186 396.3529 401.94978 408.83134 412.89454 419.5072 422.04673 425.09413 425.114 430.20298 434.78404 442.93037 447.5114 451.57463 458.45619 462.51939 467.85734 472.70729 472.9662 477.54725 481.73994 484.78733 489.36839 494.70634 502.4842 502.4842 511.13844 518.53787">G&#x00b4;en&#x00b4;ereral&#x00b4;eatoirementdesjoursdegestation,seulementsil&#x2019;&#x02c6;ageestsup&#x00b4;erieur`aNB</tspan></text>
<path transform="matrix(1,0,0,-1,-114.527378,-191.13184)" stroke-width=".39785" stroke-linecap="butt" stroke-miterlimit="10" stroke-linejoin="miter" fill="none" stroke="#000000" d="M526.16-442.332H529.215"/>
<text xml:space="preserve" transform="matrix(1 0 0 1 -114.527378 -191.13184)" font-size="9.958844" font-family="CMTI10" font-style="italic"><tspan y="442.5321" x="529.2142 534.44259 541.7026">JRS</tspan></text>
<path transform="matrix(1,0,0,-1,-114.527378,-191.13184)" stroke-width=".39785" stroke-linecap="butt" stroke-miterlimit="10" stroke-linejoin="miter" fill="none" stroke="#000000" d="M547.918-442.332H550.973"/>
<text xml:space="preserve" transform="matrix(1 0 0 1 -114.527378 -191.13184)" font-size="9.958844" font-family="CMTI10" font-style="italic"><tspan y="442.5321" x="550.97097 557.723 565.12246 572.1235 578.87557 585.3887 592.5092">PUBERTE</tspan></text>
<path transform="matrix(1,0,0,-1,-114.527378,-191.13184)" stroke-width=".39785" stroke-linecap="butt" stroke-miterlimit="10" stroke-linejoin="miter" fill="none" stroke="#000000" d="M599.887-442.332H602.941"/>
<text xml:space="preserve" transform="matrix(1 0 0 1 -114.527378 -191.13184)" font-size="9.958844" font-family="CMTI10" font-style="italic"><tspan y="442.5321" x="602.94137 609.6934 616.9534 623.7055">PRED</tspan></text>
<text xml:space="preserve" transform="matrix(1 0 0 1 -114.527378 -191.13184)" font-size="9.958844" font-family="CMR10"><tspan y="442.5321" x="632.17056">;</tspan></text>
<text xml:space="preserve" transform="matrix(1 0 0 1 -114.527378 -191.13184)" font-size="6.971171" font-family="CMBX7" font-weight="bold"><tspan y="454.4826" x="116.736728 121.24707">19</tspan></text>
<text xml:space="preserve" transform="matrix(1 0 0 1 -114.527378 -191.13184)" font-size="9.958844" font-family="CMTI10" font-style="italic"><tspan y="454.4826" x="160.61717 167.73775 171.68144 171.94039 176.52146 181.10253 188.87042 194.20836 199.80524 207.95157 212.02474 217.11371 221.17691 229.3332 233.40637 238.49535 244.09223 247.39856 251.97963 257.5765 262.66548 268.26234 275.1439 277.6834 285.82975 290.9187 294.87239 295.12135 299.7024 304.79136 309.8803 313.18666 317.7677 323.10566 330.87358 335.96253 340.54359 344.62669 352.773 355.31254 359.8936 367.52207 372.10313 377.19209 379.7316 384.31266 389.6506 393.8433 401.50166 405.83375 406.0827 410.66377 416.00169 416.2606 420.84165 424.78538 425.04429 429.62535 434.2064">Cr&#x00b4;eerunecasecontenantlepr&#x00b4;edateuraveclesvaleursg&#x00b4;en&#x00b4;er&#x00b4;ees</tspan></text>
<text xml:space="preserve" transform="matrix(1 0 0 1 -114.527378 -191.13184)" font-size="9.958844" font-family="CMR10"><tspan y="454.4826" x="439.0962">;</tspan></text>
<text xml:space="preserve" transform="matrix(1 0 0 1 -114.527378 -191.13184)" font-size="6.971171" font-family="CMBX7" font-weight="bold"><tspan y="466.43409" x="116.736728 121.24707">20</tspan></text>
<text xml:space="preserve" transform="matrix(1 0 0 1 -114.527378 -191.13184)" font-size="9.958844" font-family="CMTI10" font-style="italic"><tspan y="466.43409" x="160.61717 169.5403 174.12137 177.4277 180.73404 184.43874 192.58507 192.58507 201.22936 204.27677 209.36574 214.70368 222.48154 225.02104 233.68524 238.26631 242.45899 245.5064 248.57372 251.11322 259.2496 264.33857 268.91963 273.00273 281.14906 283.68858 292.3428 296.41596 301.5049 305.5681 313.7244 318.30546 322.24919 322.49815 326.83024 327.0792 331.66026">Mettre`ajourlagrilleaveclacasecr&#x00b4;e&#x00b4;ee</tspan></text>
<text xml:space="preserve" transform="matrix(1 0 0 1 -114.527378 -191.13184)" font-size="9.958844" font-family="CMR10"><tspan y="466.43409" x="336.99818">;</tspan></text>
<text xml:space="preserve" transform="matrix(1 0 0 1 -114.527378 -191.13184)" font-size="6.971171" font-family="CMBX7" font-weight="bold"><tspan y="478.38459" x="116.736728 121.24707">21</tspan></text>
<text xml:space="preserve" transform="matrix(1 0 0 1 -114.527378 -191.13184)" font-size="9.958844" font-family="CMTI10" font-style="italic"><tspan y="478.38459" x="160.61717 164.45133 170.0482 174.62928 178.58293 178.84188 183.42295 191.55933 196.1404 201.73728 205.04361 209.62468 217.40254 219.94205 228.07843 232.1516 237.24057 245.37696 250.46593 253.77227 258.35334 263.69129 271.47914 276.56809 284.71443 289.80339 293.7471 294.006 298.58708 303.67604 308.76499 312.07133 316.65238 321.99034 326.183 333.82145 338.9104 343.99937 349.59623 357.2446 359.78413 368.43836 373.0194 377.2121 380.2595 383.32685 385.86637">Incr&#x00b4;ementerlecompteurdepr&#x00b4;edateursdanslagrille</tspan></text>
<text xml:space="preserve" transform="matrix(1 0 0 1 -114.527378 -191.13184)" font-size="9.958844" font-family="CMR10"><tspan y="478.38459" x="391.20429">;</tspan></text>
<text xml:space="preserve" transform="matrix(1 0 0 1 -114.527378 -191.13184)" font-size="6.971171" font-family="CMBX7" font-weight="bold"><tspan y="491.3307" x="116.338878 120.84922">22</tspan></text>
<text xml:space="preserve" transform="matrix(1 0 0 1 -114.527378 -191.13184)" font-size="9.958844" font-family="CMBX10" font-weight="bold"><tspan y="491.3307" x="145.27997">&#xfb01;</tspan></text>
<text xml:space="preserve" transform="matrix(1 0 0 1 -114.527378 -191.13184)" font-size="9.958844" font-family="CMBX10" font-weight="bold"><tspan y="491.3307" x="151.63372">n</tspan></text>
<text xml:space="preserve" transform="matrix(1 0 0 1 -114.527378 -191.13184)" font-size="6.971171" font-family="CMBX7" font-weight="bold"><tspan y="504.27784" x="115.940029 120.45037">23</tspan></text>
<text xml:space="preserve" transform="matrix(1 0 0 1 -114.527378 -191.13184)" font-size="9.958844" font-family="CMBX10" font-weight="bold"><tspan y="504.27784" x="129.94374">&#xfb01;</tspan></text>
<text xml:space="preserve" transform="matrix(1 0 0 1 -114.527378 -191.13184)" font-size="9.958844" font-family="CMBX10" font-weight="bold"><tspan y="504.27784" x="136.29749">n</tspan></text>
<path transform="matrix(1,0,0,-1,-114.527378,-191.13184)" stroke-width=".7967" stroke-linecap="butt" stroke-miterlimit="10" stroke-linejoin="miter" fill="none" stroke="#000000" d="M115.004-510.254H726.773"/>
</g>
</svg>
