<svg xmlns="http://www.w3.org/2000/svg" xmlns:xlink="http://www.w3.org/1999/xlink" version="1.1" width="612.0768pt" height="237.16742pt" viewBox="0 0 612.0768 237.16742">
<g>
<style>
    svg  { background-color:#ffffff }
</style>
<path transform="matrix(1,0,0,-1,-114.527378,-191.13184)" stroke-width=".7967" stroke-linecap="butt" stroke-miterlimit="10" stroke-linejoin="miter" fill="none" stroke="#000000" d="M115.004-191.535H726.773"/>
<text xml:space="preserve" transform="matrix(1 0 0 1 -114.527378 -191.13184)" font-size="9.958844" font-family="CMBX10" font-weight="bold"><tspan y="200.84125" x="122.47456 131.1288 134.30567 140.032 145.75833 150.46887 153.64574 158.09734 164.48096 174.02153 183.08408 192.63462">Algorithme3:</tspan></text>
<text xml:space="preserve" transform="matrix(1 0 0 1 -114.527378 -191.13184)" font-size="9.958844" font-family="CMR10"><tspan y="200.84125" x="199.13773 205.90975 210.88916 211.168 215.58972 220.01145 225.5386 229.43251 232.19112 237.17053 246.02394 251.5511 254.30971 259.83686 268.71018 273.1319 278.38023 282.80195 285.59043 293.32844 298.8556 306.60359 312.13075 316.02467 321.0041 323.7627">Ex&#x00b4;ecutiond&#x2019;uncycledeproie</tspan></text>
<path transform="matrix(1,0,0,-1,-114.527378,-191.13184)" stroke-width=".7967" stroke-linecap="butt" stroke-miterlimit="10" stroke-linejoin="miter" fill="none" stroke="#000000" d="M115.004-205.168H726.773"/>
<text xml:space="preserve" transform="matrix(1 0 0 1 -114.527378 -191.13184)" font-size="9.958844" font-family="CMBX10" font-weight="bold"><tspan y="214.47412" x="129.94374 137.46266 143.51764 147.96924 152.44077 152.67978 157.92809 163.17639 171.51195">Entr&#x00b4;ees:</tspan></text>
<text xml:space="preserve" transform="matrix(1 0 0 1 -114.527378 -191.13184)" font-size="9.958844" font-family="CMR10"><tspan y="214.47412" x="178.01506 182.99448 186.88838 189.64699 192.4056 195.19408 199.6158 205.70066 208.45926 211.21787 216.19728 221.75432 226.17604 232.27086 236.69258 241.672 244.4306 249.41002 254.93718 260.46434 264.91593 270.9908 275.97026 281.4974 284.256 292.55174 297.53117">grille,ligne,colonne,animal</tspan></text>
<text xml:space="preserve" transform="matrix(1 0 0 1 -114.527378 -191.13184)" font-size="6.971171" font-family="CMBX7" font-weight="bold"><tspan y="226.4246" x="120.452327">1</tspan></text>
<text xml:space="preserve" transform="matrix(1 0 0 1 -114.527378 -191.13184)" font-size="9.958844" font-family="CMBX10" font-weight="bold"><tspan y="226.4246" x="129.94374 136.06844 136.30745 141.55576 147.9095 154.26325">d&#x00b4;ebut</tspan></text>
<path transform="matrix(1,0,0,-1,-114.527378,-191.13184)" stroke-width=".39785" stroke-linecap="butt" stroke-miterlimit="10" stroke-linejoin="miter" fill="none" stroke="#000000" d="M135.121-412.258V-230.012"/>
<text xml:space="preserve" transform="matrix(1 0 0 1 -114.527378 -191.13184)" font-size="6.971171" font-family="CMBX7" font-weight="bold"><tspan y="238.3751" x="120.850177">2</tspan></text>
<text xml:space="preserve" transform="matrix(1 0 0 1 -114.527378 -191.13184)" font-size="9.958844" font-family="CMTI10" font-style="italic"><tspan y="238.3751" x="145.27997 149.11412 154.711 159.29207 163.24573 163.50467 168.08574 176.22212 180.80319 186.40007 189.7064 194.28748 202.06534 204.60485 207.65225 207.65225 212.74123 217.3223 225.46863 230.5576 238.70394 241.24344 244.29085 249.37982 254.9767 258.0241 266.19038 271.27934 277.39408 281.97514 287.0641 294.82206 302.22148">Incr&#x00b4;ementerl&#x2019;&#x02c6;agedel&#x2019;animalparNB</tspan></text>
<path transform="matrix(1,0,0,-1,-114.527378,-191.13184)" stroke-width=".39785" stroke-linecap="butt" stroke-miterlimit="10" stroke-linejoin="miter" fill="none" stroke="#000000" d="M309.848-238.176H312.898"/>
<text xml:space="preserve" transform="matrix(1 0 0 1 -114.527378 -191.13184)" font-size="9.958844" font-family="CMTI10" font-style="italic"><tspan y="238.3751" x="312.90077 318.12916 325.38917">JRS</tspan></text>
<path transform="matrix(1,0,0,-1,-114.527378,-191.13184)" stroke-width=".39785" stroke-linecap="butt" stroke-miterlimit="10" stroke-linejoin="miter" fill="none" stroke="#000000" d="M331.602-238.176H334.656"/>
<text xml:space="preserve" transform="matrix(1 0 0 1 -114.527378 -191.13184)" font-size="9.958844" font-family="CMTI10" font-style="italic"><tspan y="238.3751" x="334.65754 341.40965 348.80906 355.81013 362.56224 369.07533 376.1959">PUBERTE</tspan></text>
<path transform="matrix(1,0,0,-1,-114.527378,-191.13184)" stroke-width=".39785" stroke-linecap="butt" stroke-miterlimit="10" stroke-linejoin="miter" fill="none" stroke="#000000" d="M383.574-238.176H386.629"/>
<text xml:space="preserve" transform="matrix(1 0 0 1 -114.527378 -191.13184)" font-size="9.958844" font-family="CMTI10" font-style="italic"><tspan y="238.3751" x="386.62794 393.38005 400.39109 408.01957 411.85374">PROIE</tspan></text>
<text xml:space="preserve" transform="matrix(1 0 0 1 -114.527378 -191.13184)" font-size="9.958844" font-family="CMR10"><tspan y="238.3751" x="419.8208">;</tspan></text>
<text xml:space="preserve" transform="matrix(1 0 0 1 -114.527378 -191.13184)" font-size="6.971171" font-family="CMBX7" font-weight="bold"><tspan y="250.32559" x="120.850177">3</tspan></text>
<text xml:space="preserve" transform="matrix(1 0 0 1 -114.527378 -191.13184)" font-size="9.958844" font-family="CMBX10" font-weight="bold"><tspan y="250.32559" x="145.27997 149.79132">si</tspan></text>
<text xml:space="preserve" transform="matrix(1 0 0 1 -114.527378 -191.13184)" font-size="9.958844" font-family="CMTI10" font-style="italic"><tspan y="250.32559" x="156.29444 156.3044 161.39337 165.97444 174.12078 179.20975 187.34613 189.88564 192.93305 198.02202 203.6189 206.6663 214.83257 219.92154">&#x02c6;agedel&#x2019;animal</tspan></text>
<text xml:space="preserve" transform="matrix(1 0 0 1 -114.527378 -191.13184)" font-size="9.958844" font-family="CMMI10" font-style="italic"><tspan y="250.32559" x="226.03627">&#x003e;</tspan></text>
<text xml:space="preserve" transform="matrix(1 0 0 1 -114.527378 -191.13184)" font-size="9.958844" font-family="CMTI10" font-style="italic"><tspan y="250.32559" x="237.33956 246.26268 253.66211">MAX</tspan></text>
<path transform="matrix(1,0,0,-1,-114.527378,-191.13184)" stroke-width=".39785" stroke-linecap="butt" stroke-miterlimit="10" stroke-linejoin="miter" fill="none" stroke="#000000" d="M261.688-250.125H264.742"/>
<text xml:space="preserve" transform="matrix(1 0 0 1 -114.527378 -191.13184)" font-size="9.958844" font-family="CMTI10" font-style="italic"><tspan y="250.32559" x="264.7409 271.89137 279.58955">AGE</tspan></text>
<path transform="matrix(1,0,0,-1,-114.527378,-191.13184)" stroke-width=".39785" stroke-linecap="butt" stroke-miterlimit="10" stroke-linejoin="miter" fill="none" stroke="#000000" d="M286.961-250.125H290.012"/>
<text xml:space="preserve" transform="matrix(1 0 0 1 -114.527378 -191.13184)" font-size="9.958844" font-family="CMTI10" font-style="italic"><tspan y="250.32559" x="290.01438 296.76649 303.77754 311.406 315.24018">PROIE</tspan></text>
<text xml:space="preserve" transform="matrix(1 0 0 1 -114.527378 -191.13184)" font-size="9.958844" font-family="CMBX10" font-weight="bold"><tspan y="250.32559" x="326.52357 332.09056 335.26744 340.99378 345.7043">alors</tspan></text>
<path transform="matrix(1,0,0,-1,-114.527378,-191.13184)" stroke-width=".39785" stroke-linecap="butt" stroke-miterlimit="10" stroke-linejoin="miter" fill="none" stroke="#000000" d="M150.461-277.812V-253.91"/>
<text xml:space="preserve" transform="matrix(1 0 0 1 -114.527378 -191.13184)" font-size="6.971171" font-family="CMBX7" font-weight="bold"><tspan y="262.2771" x="121.24902">4</tspan></text>
<text xml:space="preserve" transform="matrix(1 0 0 1 -114.527378 -191.13184)" font-size="9.958844" font-family="CMTI10" font-style="italic"><tspan y="262.2771" x="160.61717 169.5403 174.12137 177.4277 180.73404 184.43874 192.58507 195.12458 203.77881 207.85198 212.94095 217.00415 225.16045 229.22365 231.76316 234.81056 239.39163 244.98851 249.56958 256.21214 260.28529 265.37425 267.91377 273.00273 278.59959 284.19645 288.7775 296.41593 301.50489 309.6512 312.19075 320.84498 325.42604 329.6187 332.6661 335.73347 338.27299 346.42927 346.41929 355.07353 359.65458 362.70198 367.79093">Mettrelacase(ligne,colonne)delagrille`avide</tspan></text>
<text xml:space="preserve" transform="matrix(1 0 0 1 -114.527378 -191.13184)" font-size="9.958844" font-family="CMR10"><tspan y="262.2771" x="373.13883">;</tspan></text>
<text xml:space="preserve" transform="matrix(1 0 0 1 -114.527378 -191.13184)" font-size="6.971171" font-family="CMBX7" font-weight="bold"><tspan y="274.22758" x="121.24902">5</tspan></text>
<text xml:space="preserve" transform="matrix(1 0 0 1 -114.527378 -191.13184)" font-size="9.958844" font-family="CMTI10" font-style="italic"><tspan y="274.22758" x="160.61717 167.87717 168.13611 172.71718 177.29825 181.24195 181.50089 186.08196 194.21834 198.79941 204.39629 207.70262 212.28369 220.05159 222.5911 230.73743 234.8106 239.89957 248.03595 253.12493 256.43128 261.01234 266.35029 274.13813 279.22709 287.3734 292.46238 296.14717 301.2361 304.2835 308.86457 316.51295 321.6019 329.74824 332.28776 340.942 345.52305 349.71574 352.76313 355.83049 358.37">D&#x00b4;ecr&#x00b4;ementerlecompteurdeproiesdelagrille</tspan></text>
<text xml:space="preserve" transform="matrix(1 0 0 1 -114.527378 -191.13184)" font-size="9.958844" font-family="CMR10"><tspan y="274.22758" x="363.70793">;</tspan></text>
<text xml:space="preserve" transform="matrix(1 0 0 1 -114.527378 -191.13184)" font-size="6.971171" font-family="CMBX7" font-weight="bold"><tspan y="287.1737" x="120.850177">6</tspan></text>
<text xml:space="preserve" transform="matrix(1 0 0 1 -114.527378 -191.13184)" font-size="9.958844" font-family="CMBX10" font-weight="bold"><tspan y="287.1737" x="145.27997 149.79132 152.96819 159.32193 165.04827 175.0569 179.56826">sinonsi</tspan></text>
<text xml:space="preserve" transform="matrix(1 0 0 1 -114.527378 -191.13184)" font-size="9.958844" font-family="CMTI10" font-style="italic"><tspan y="287.1737" x="185.91204 185.91204 191.001 195.58208 203.56908 208.65805 216.655 219.1945 222.24192 227.33089 232.92777 235.97518 244.14144 249.23041">&#x02c6;agedel&#x2019;animal</tspan></text>
<text xml:space="preserve" transform="matrix(1 0 0 1 -114.527378 -191.13184)" font-size="9.958844" font-family="CMSY10" font-style="italic"><tspan y="287.1737" x="255.18579">&#x2265;</tspan></text>
<text xml:space="preserve" transform="matrix(1 0 0 1 -114.527378 -191.13184)" font-size="9.958844" font-family="CMTI10" font-style="italic"><tspan y="287.1737" x="266.33973 273.73915">NB</tspan></text>
<path transform="matrix(1,0,0,-1,-114.527378,-191.13184)" stroke-width=".39785" stroke-linecap="butt" stroke-miterlimit="10" stroke-linejoin="miter" fill="none" stroke="#000000" d="M281.367-286.977H284.422"/>
<text xml:space="preserve" transform="matrix(1 0 0 1 -114.527378 -191.13184)" font-size="9.958844" font-family="CMTI10" font-style="italic"><tspan y="287.1737" x="284.4205 289.6489 296.9089">JRS</tspan></text>
<path transform="matrix(1,0,0,-1,-114.527378,-191.13184)" stroke-width=".39785" stroke-linecap="butt" stroke-miterlimit="10" stroke-linejoin="miter" fill="none" stroke="#000000" d="M303.125-286.977H306.176"/>
<text xml:space="preserve" transform="matrix(1 0 0 1 -114.527378 -191.13184)" font-size="9.958844" font-family="CMTI10" font-style="italic"><tspan y="287.1737" x="306.17729 312.92939 320.3288 327.32987 334.08198 340.59507 347.71565">PUBERTE</tspan></text>
<path transform="matrix(1,0,0,-1,-114.527378,-191.13184)" stroke-width=".39785" stroke-linecap="butt" stroke-miterlimit="10" stroke-linejoin="miter" fill="none" stroke="#000000" d="M355.094-286.977H358.148"/>
<text xml:space="preserve" transform="matrix(1 0 0 1 -114.527378 -191.13184)" font-size="9.958844" font-family="CMTI10" font-style="italic"><tspan y="287.1737" x="358.14768 364.89979 371.92079 379.54927 383.38343">PROIE</tspan></text>
<text xml:space="preserve" transform="matrix(1 0 0 1 -114.527378 -191.13184)" font-size="9.958844" font-family="CMBXTI10" font-weight="bold" font-style="italic"><tspan y="287.1737" x="393.55143 398.84953">et</tspan></text>
<text xml:space="preserve" transform="matrix(1 0 0 1 -114.527378 -191.13184)" font-size="9.958844" font-family="CMTI10" font-style="italic"><tspan y="287.1737" x="406.09959 409.14698 414.23594 419.57389 423.76658 431.26557 436.35453 444.35148 448.93254 453.51359 457.57679 460.88313 465.97209 469.2784 472.3258 477.41477 486.44743 491.53639 499.53334 502.07286 505.12025 510.2092 515.8061 518.8535 527.0197 532.1087">joursdegestationdel&#x2019;animal</tspan></text>
<text xml:space="preserve" transform="matrix(1 0 0 1 -114.527378 -191.13184)" font-size="9.958844" font-family="CMSY10" font-style="italic"><tspan y="287.1737" x="538.0641">&#x2265;</tspan></text>
<text xml:space="preserve" transform="matrix(1 0 0 1 -114.527378 -191.13184)" font-size="9.958844" font-family="CMTI10" font-style="italic"><tspan y="287.1737" x="549.218 556.61746">NB</tspan></text>
<path transform="matrix(1,0,0,-1,-114.527378,-191.13184)" stroke-width=".39785" stroke-linecap="butt" stroke-miterlimit="10" stroke-linejoin="miter" fill="none" stroke="#000000" d="M564.238-286.977H567.293"/>
<text xml:space="preserve" transform="matrix(1 0 0 1 -114.527378 -191.13184)" font-size="9.958844" font-family="CMTI10" font-style="italic"><tspan y="287.1737" x="567.2948 572.5232 579.7832">JRS</tspan></text>
<path transform="matrix(1,0,0,-1,-114.527378,-191.13184)" stroke-width=".39785" stroke-linecap="butt" stroke-miterlimit="10" stroke-linejoin="miter" fill="none" stroke="#000000" d="M585.996-286.977H589.051"/>
<text xml:space="preserve" transform="matrix(1 0 0 1 -114.527378 -191.13184)" font-size="9.958844" font-family="CMTI10" font-style="italic"><tspan y="287.1737" x="589.0506 596.7488 603.50088 609.0977 615.4714 622.1139 629.23446 633.0686 640.6971">GESTATION</tspan></text>
<path transform="matrix(1,0,0,-1,-114.527378,-191.13184)" stroke-width=".39785" stroke-linecap="butt" stroke-miterlimit="10" stroke-linejoin="miter" fill="none" stroke="#000000" d="M648.727-286.977H651.781"/>
<text xml:space="preserve" transform="matrix(1 0 0 1 -114.527378 -191.13184)" font-size="9.958844" font-family="CMTI10" font-style="italic"><tspan y="287.1737" x="651.77999 658.53207 665.55307 673.1815 677.0157">PROIE</tspan></text>
<text xml:space="preserve" transform="matrix(1 0 0 1 -114.527378 -191.13184)" font-size="9.958844" font-family="CMBX10" font-weight="bold"><tspan y="287.1737" x="688.12979 693.6968 696.87368 702.6 707.3105">alors</tspan></text>
<path transform="matrix(1,0,0,-1,-114.527378,-191.13184)" stroke-width=".39785" stroke-linecap="butt" stroke-miterlimit="10" stroke-linejoin="miter" fill="none" stroke="#000000" d="M150.461-375.41V-290.758"/>
<text xml:space="preserve" transform="matrix(1 0 0 1 -114.527378 -191.13184)" font-size="6.971171" font-family="CMBX7" font-weight="bold"><tspan y="299.12419" x="121.24902">7</tspan></text>
<text xml:space="preserve" transform="matrix(1 0 0 1 -114.527378 -191.13184)" font-size="9.958844" font-family="CMTI10" font-style="italic"><tspan y="299.12419" x="160.61717 167.73775 172.82672 177.40779 181.10253 185.6836 190.77257 195.35364 203.12154 208.45948 217.62162 222.20269 227.29166 230.33907 234.40227 237.47956 246.6417 251.73067 257.0686 260.37495 265.4639 270.80186 278.5797 283.66868 291.815 294.35453 303.00877 307.0819 312.17088 316.23408 324.39036 328.45356 330.99308 334.04048 338.62153 344.21839 348.79945 355.442 359.5052 364.59416 367.13368 372.22264 377.8195 383.41636 387.9974 395.64579 400.22685 405.5648 412.19737 416.7784 420.8416 427.72319 432.30424 435.35163 440.44059">Chercherunvoisinautourdelacase(ligne,colonne)quiestvide</tspan></text>
<text xml:space="preserve" transform="matrix(1 0 0 1 -114.527378 -191.13184)" font-size="9.958844" font-family="CMR10"><tspan y="299.12419" x="445.76856">;</tspan></text>
<text xml:space="preserve" transform="matrix(1 0 0 1 -114.527378 -191.13184)" font-size="6.971171" font-family="CMBX7" font-weight="bold"><tspan y="311.07469" x="121.24902">8</tspan></text>
<text xml:space="preserve" transform="matrix(1 0 0 1 -114.527378 -191.13184)" font-size="9.958844" font-family="CMBX10" font-weight="bold"><tspan y="311.07469" x="160.61717 163.79404">if</tspan></text>
<text xml:space="preserve" transform="matrix(1 0 0 1 -114.527378 -191.13184)" font-size="9.958844" font-family="CMTI10" font-style="italic"><tspan y="311.07469" x="171.70137 174.74878 180.86351 185.44458 190.05553 193.10294 197.19602 200.50235 208.63874 213.97667 223.14878 227.72985 232.81882 235.86623 239.92943 242.97684 252.16886 256.7499 259.7973 264.88627">ilexisteunvoisinvide</tspan></text>
<text xml:space="preserve" transform="matrix(1 0 0 1 -114.527378 -191.13184)" font-size="9.958844" font-family="CMBXTI10" font-weight="bold" font-style="italic"><tspan y="311.07469" x="273.0326 278.3307">et</tspan></text>
<text xml:space="preserve" transform="matrix(1 0 0 1 -114.527378 -191.13184)" font-size="9.958844" font-family="CMTI10" font-style="italic"><tspan y="311.07469" x="285.73014 291.327 296.41596 304.55235 309.1334 312.8381 320.98445 326.0734 334.20976 339.2987 342.99345 348.0824 351.1298 355.71086 363.34928 368.43824 373.5272 379.12406 386.77244 389.31196 397.9662 402.54725 406.73994 409.78733 412.85469 415.3942">nombredeproiesdanslagrille</tspan></text>
<text xml:space="preserve" transform="matrix(1 0 0 1 -114.527378 -191.13184)" font-size="9.958844" font-family="CMMI10" font-style="italic"><tspan y="311.07469" x="423.54054">&#x003c;</tspan></text>
<text xml:space="preserve" transform="matrix(1 0 0 1 -114.527378 -191.13184)" font-size="9.958844" font-family="CMTI10" font-style="italic"><tspan y="311.07469" x="434.8538 442.2532">NB</tspan></text>
<path transform="matrix(1,0,0,-1,-114.527378,-191.13184)" stroke-width=".39785" stroke-linecap="butt" stroke-miterlimit="10" stroke-linejoin="miter" fill="none" stroke="#000000" d="M449.879-310.875H452.93"/>
<text xml:space="preserve" transform="matrix(1 0 0 1 -114.527378 -191.13184)" font-size="9.958844" font-family="CMTI10" font-style="italic"><tspan y="311.07469" x="452.93095 461.85408 469.25349">MAX</tspan></text>
<path transform="matrix(1,0,0,-1,-114.527378,-191.13184)" stroke-width=".39785" stroke-linecap="butt" stroke-miterlimit="10" stroke-linejoin="miter" fill="none" stroke="#000000" d="M477.277-310.875H480.332"/>
<text xml:space="preserve" transform="matrix(1 0 0 1 -114.527378 -191.13184)" font-size="9.958844" font-family="CMTI10" font-style="italic"><tspan y="311.07469" x="480.3316 487.0837 494.09477 501.72325 505.5574 512.3095">PROIES</tspan></text>
<text xml:space="preserve" transform="matrix(1 0 0 1 -114.527378 -191.13184)" font-size="9.958844" font-family="CMBX10" font-weight="bold"><tspan y="311.07469" x="522.4376 526.8892 533.243 538.4913">then</tspan></text>
<path transform="matrix(1,0,0,-1,-114.527378,-191.13184)" stroke-width=".39785" stroke-linecap="butt" stroke-miterlimit="10" stroke-linejoin="miter" fill="none" stroke="#000000" d="M165.797-350.512V-314.66"/>
<text xml:space="preserve" transform="matrix(1 0 0 1 -114.527378 -191.13184)" font-size="6.971171" font-family="CMBX7" font-weight="bold"><tspan y="323.02619" x="121.64687">9</tspan></text>
<text xml:space="preserve" transform="matrix(1 0 0 1 -114.527378 -191.13184)" font-size="9.958844" font-family="CMTI10" font-style="italic"><tspan y="323.02619" x="175.9534 179.78755 185.38443 188.43184 191.73818 194.78559 199.90444 202.44394 205.49135 209.55455 214.13562 221.91349 227.25142 232.8483 240.99463 246.5915 251.68048 257.01844 261.5995 266.18055 269.2479 271.7874 279.93376 284.0069 289.09587 293.15907 301.31535 306.4043 310.98536 315.06846 323.2048 328.54277 334.13963 342.28596 347.3749 351.06965 356.1586 359.206 367.36228 372.45124 377.28129 382.37025 387.9671 394.84867 399.93763 404.51869 412.14717 416.7282 421.81718 424.3567 428.93775 434.2757 438.46839 446.12675 450.7078 455.79676 463.56468 468.39469 468.6536 473.23466 476.28205 481.371 486.70896">Initialiserunenouvellecaseavecuneproieayantdesvaleurspard&#x00b4;efaut</tspan></text>
<text xml:space="preserve" transform="matrix(1 0 0 1 -114.527378 -191.13184)" font-size="9.958844" font-family="CMR10"><tspan y="323.02619" x="490.9813">;</tspan></text>
<text xml:space="preserve" transform="matrix(1 0 0 1 -114.527378 -191.13184)" font-size="6.971171" font-family="CMBX7" font-weight="bold"><tspan y="334.97666" x="117.135578 121.64592">10</tspan></text>
<text xml:space="preserve" transform="matrix(1 0 0 1 -114.527378 -191.13184)" font-size="9.958844" font-family="CMTI10" font-style="italic"><tspan y="334.97666" x="175.9534 184.87653 189.4576 192.76393 196.07027 199.77497 207.9213 207.9213 216.56558 219.61299 224.70197 230.0399 237.81777 240.35727 249.02147 253.60254 257.79524 260.84263 263.90998 266.4495 274.58586 279.6748 284.25587 288.33897 296.4853 299.0248 307.67906 313.2759 318.36488 323.70283 328.28388 332.86494 335.93229 338.4718 346.61814 350.69129 355.78025 359.84346 367.98979 373.07875 381.9919 386.57298 391.66194 395.72514 398.77253 402.07887 405.15614 410.2451 415.84196 421.4388 426.01988 434.15626 438.7373 444.33418 451.22569 456.31465 465.21788 469.79893 474.88789 477.93528 481.99848 485.04588">Mettre`ajourlagrilleaveclanouvellecaseaupositionnementduvoisin</tspan></text>
<text xml:space="preserve" transform="matrix(1 0 0 1 -114.527378 -191.13184)" font-size="9.958844" font-family="CMR10"><tspan y="334.97666" x="491.42948">;</tspan></text>
<text xml:space="preserve" transform="matrix(1 0 0 1 -114.527378 -191.13184)" font-size="6.971171" font-family="CMBX7" font-weight="bold"><tspan y="346.92716" x="117.135578 121.64592">11</tspan></text>
<text xml:space="preserve" transform="matrix(1 0 0 1 -114.527378 -191.13184)" font-size="9.958844" font-family="CMTI10" font-style="italic"><tspan y="346.92716" x="175.9534 179.78755 185.38443 189.9655 193.91916 194.1781 198.75917 206.89556 211.47663 217.0735 220.37984 224.9609 232.73877 235.27828 243.41466 247.48783 252.5768 260.71318 265.80213 269.10847 273.6895 279.02748 286.8153 291.90428 300.0506 305.13957 308.8343 313.92326 316.97065 321.5517 329.18019 334.26914 342.41548 344.955 353.61918 358.20024 362.3929 365.4403 368.50767 371.04719">Incr&#x00b4;ementerlecompteurdeproiesdelagrille</tspan></text>
<text xml:space="preserve" transform="matrix(1 0 0 1 -114.527378 -191.13184)" font-size="9.958844" font-family="CMR10"><tspan y="346.92716" x="376.3851">;</tspan></text>
<text xml:space="preserve" transform="matrix(1 0 0 1 -114.527378 -191.13184)" font-size="6.971171" font-family="CMBX7" font-weight="bold"><tspan y="359.8733" x="116.736728 121.24707">12</tspan></text>
<text xml:space="preserve" transform="matrix(1 0 0 1 -114.527378 -191.13184)" font-size="9.958844" font-family="CMBX10" font-weight="bold"><tspan y="359.8733" x="160.61717 165.86548 172.21923">end</tspan></text>
<text xml:space="preserve" transform="matrix(1 0 0 1 -114.527378 -191.13184)" font-size="6.971171" font-family="CMBX7" font-weight="bold"><tspan y="371.82478" x="116.736728 121.24707">13</tspan></text>
<text xml:space="preserve" transform="matrix(1 0 0 1 -114.527378 -191.13184)" font-size="9.958844" font-family="CMTI10" font-style="italic"><tspan y="371.82478" x="160.61717 167.61824 167.87718 172.45825 175.50566 181.10254 184.14995 187.45629 190.53357 195.62255 198.16205 201.20946 205.27266 209.85373 217.64154 220.18105 224.76212 232.40055 235.44795 240.53693 245.87487 250.06754 257.7259 262.81486 270.96119 275.54225 280.1233 284.1865 287.49284 292.5818 295.88813 298.93553 304.02449 313.19657 318.28553 326.43186 328.97138 332.01878 337.10774 342.7046 345.75199 353.91825 359.0072 365.12196 365.12196 373.77619">R&#x00b4;einitialiserlesjoursdegestationdel&#x2019;animal`a0</tspan></text>
<text xml:space="preserve" transform="matrix(1 0 0 1 -114.527378 -191.13184)" font-size="9.958844" font-family="CMR10"><tspan y="371.82478" x="380.2096">;</tspan></text>
<text xml:space="preserve" transform="matrix(1 0 0 1 -114.527378 -191.13184)" font-size="6.971171" font-family="CMBX7" font-weight="bold"><tspan y="384.77088" x="116.338878 120.84922">14</tspan></text>
<text xml:space="preserve" transform="matrix(1 0 0 1 -114.527378 -191.13184)" font-size="9.958844" font-family="CMBX10" font-weight="bold"><tspan y="384.77088" x="145.27997 149.79132 152.96819 159.32193 165.04827">sinon</tspan></text>
<path transform="matrix(1,0,0,-1,-114.527378,-191.13184)" stroke-width=".39785" stroke-linecap="butt" stroke-miterlimit="10" stroke-linejoin="miter" fill="none" stroke="#000000" d="M150.461-400.309V-388.355"/>
<text xml:space="preserve" transform="matrix(1 0 0 1 -114.527378 -191.13184)" font-size="6.971171" font-family="CMBX7" font-weight="bold"><tspan y="396.72138" x="116.736728 121.24707">15</tspan></text>
<text xml:space="preserve" transform="matrix(1 0 0 1 -114.527378 -191.13184)" font-size="9.958844" font-family="CMTI10" font-style="italic"><tspan y="396.72138" x="160.61717 167.87717 168.13611 172.71718 177.80615 180.34566 185.43463 189.51776 194.09883 201.85677 204.39627 207.44368 212.53266 218.12953 221.17694 229.3432 234.43218 240.53694 245.11801 249.69908 253.89176 261.54014 266.87809 272.47496 280.63124 284.69444 289.7834 293.8466 302.00288 306.58393 311.67289 314.72029 318.78349 321.83088 327.42774 335.59397 340.68293 343.73033 347.79353 352.3945 357.48347 363.08033 366.12773 370.70878 373.2483 381.41453 386.50349 395.4067 397.94624 406.09257 408.63209 413.72105 416.76844 420.8615 424.9247 429.50578 437.27369 441.33689 446.67485 454.44276 459.5317 462.07124 467.1602 471.2433 479.38963 483.45283 490.0854 495.17436 500.5123 505.09336 510.4313 519.6034 524.4434 524.6924 529.27346 534.3624 536.9019 541.9909 546.07406 550.6551 558.79147 563.3725 568.96939 575.8509 580.43197 583.4794 588.0604 592.12368 599.0152 603.5863 608.6753 612.7385 616.80178 619.8492 624.43026 626.9996">D&#x00b4;eplacerl&#x2019;animalversunecasevoisinedisponibleoulelaissersurplacesiaucund&#x00b4;eplacementn&#x2019;estpossible</tspan></text>
<text xml:space="preserve" transform="matrix(1 0 0 1 -114.527378 -191.13184)" font-size="9.958844" font-family="CMR10"><tspan y="396.72138" x="632.3375">;</tspan></text>
<text xml:space="preserve" transform="matrix(1 0 0 1 -114.527378 -191.13184)" font-size="6.971171" font-family="CMBX7" font-weight="bold"><tspan y="408.67189" x="116.338878 120.84922">16</tspan></text>
<text xml:space="preserve" transform="matrix(1 0 0 1 -114.527378 -191.13184)" font-size="9.958844" font-family="CMBX10" font-weight="bold"><tspan y="408.67189" x="145.27997">&#xfb01;</tspan></text>
<text xml:space="preserve" transform="matrix(1 0 0 1 -114.527378 -191.13184)" font-size="9.958844" font-family="CMBX10" font-weight="bold"><tspan y="408.67189" x="151.63372">n</tspan></text>
<text xml:space="preserve" transform="matrix(1 0 0 1 -114.527378 -191.13184)" font-size="6.971171" font-family="CMBX7" font-weight="bold"><tspan y="421.619" x="115.940029 120.45037">17</tspan></text>
<text xml:space="preserve" transform="matrix(1 0 0 1 -114.527378 -191.13184)" font-size="9.958844" font-family="CMBX10" font-weight="bold"><tspan y="421.619" x="129.94374">&#xfb01;</tspan></text>
<text xml:space="preserve" transform="matrix(1 0 0 1 -114.527378 -191.13184)" font-size="9.958844" font-family="CMBX10" font-weight="bold"><tspan y="421.619" x="136.29749">n</tspan></text>
<path transform="matrix(1,0,0,-1,-114.527378,-191.13184)" stroke-width=".7967" stroke-linecap="butt" stroke-miterlimit="10" stroke-linejoin="miter" fill="none" stroke="#000000" d="M115.004-427.594H726.773"/>
</g>
</svg>
